<svg fill="#1C2033" width="52" height="52" viewBox="0 0 64 64" xmlns="http://www.w3.org/2000/svg"><path d="M14.8008 46.5004C14.8008 48.8004 16.6008 50.7004 19.0008 50.7004H21.7008V59.2004C21.7008 61.3004 23.4008 63.0004 25.5008 63.0004C27.6008 63.0004 29.3008 61.3004 29.3008 59.2004V50.7004H34.4008V59.2004C34.4008 61.3004 36.1008 63.0004 38.2008 63.0004C40.3008 63.0004 42.0008 61.3004 42.0008 59.2004V50.7004H44.7008C47.0008 50.7004 48.9008 48.9004 48.9008 46.5004V21.9004H14.8008V46.5004Z"/><path d="M40.4992 6.8L43.0992 2C43.1992 1.7 43.1992 1.4 42.9992 1.3C42.7992 1 42.6992 1 42.6992 1C42.5992 1 42.2992 1.1 42.2992 1.3L39.5992 6.2C37.2992 5.2 34.7992 4.7 32.2992 4.7C29.5992 4.7 27.1992 5.3 24.9992 6.2L22.2992 1.3C22.1992 1 21.8992 0.9 21.5992 1.2C21.2992 1.3 21.1992 1.6 21.4992 1.9L24.1992 6.7C18.5992 9.5 15.1992 14.6 15.1992 20.5H49.3992C49.1992 14.5 45.4992 9.5 40.4992 6.8ZM24.0992 14.3C23.3992 14.3 22.6992 13.6 22.6992 12.9C22.6992 12.2 23.3992 11.5 24.0992 11.5C24.7992 11.5 25.4992 12.2 25.4992 12.9C25.4992 13.6 24.9992 14.3 24.0992 14.3ZM39.8992 14.3C39.1992 14.3 38.4992 13.6 38.4992 12.9C38.4992 12.2 39.1992 11.5 39.8992 11.5C40.5992 11.5 41.2992 12.2 41.2992 12.9C41.2992 13.6 40.6992 14.3 39.8992 14.3Z"/><path d="M9.60078 21.2002C7.50078 21.2002 5.80078 22.9002 5.80078 25.0002V40.9002C5.80078 43.0002 7.50078 44.7002 9.60078 44.7002C11.7008 44.7002 13.4008 43.0002 13.4008 40.9002V25.0002C13.5008 22.8002 11.7008 21.2002 9.60078 21.2002Z"/><path d="M54.4016 21.2002C52.3016 21.2002 50.6016 22.9002 50.6016 25.0002V40.9002C50.6016 43.0002 52.3016 44.7002 54.4016 44.7002C56.5016 44.7002 58.2016 43.0002 58.2016 40.9002V25.0002C58.2016 22.8002 56.5016 21.2002 54.4016 21.2002Z"/></svg>