<?xml version="1.0" encoding="UTF-8" standalone="no"?>
<!DOCTYPE svg PUBLIC "-//W3C//DTD SVG 1.1//EN" "http://www.w3.org/Graphics/SVG/1.1/DTD/svg11.dtd">
<svg width="100%" height="100%" viewBox="0 0 1500 500" version="1.1" xmlns="http://www.w3.org/2000/svg" xmlns:xlink="http://www.w3.org/1999/xlink" xml:space="preserve" xmlns:serif="http://www.serif.com/" style="fill-rule:evenodd;clip-rule:evenodd;stroke-linejoin:round;stroke-miterlimit:2;">
    <g id="DirectX11" transform="matrix(1.05934,0,0,1.05934,194.202,5.56068)">
        <path d="M123.924,121.935L116.341,121.935L116.341,78.25C116.341,74.799 116.552,70.576 116.977,65.581L116.795,65.581C116.068,68.518 115.417,70.622 114.842,71.893L92.591,121.935L88.867,121.935L66.662,72.256C66.026,70.803 65.375,68.578 64.709,65.581L64.528,65.581C64.77,68.185 64.891,72.438 64.891,78.341L64.891,121.935L57.534,121.935L57.534,56.817L67.615,56.817L87.595,102.227C89.139,105.708 90.138,108.312 90.592,110.038L90.864,110.038C92.165,106.466 93.21,103.802 93.997,102.046L114.388,56.817L123.924,56.817L123.924,121.935Z" style="fill-rule:nonzero;"/>
        <path d="M143.859,63.628C142.526,63.628 141.391,63.174 140.453,62.266C139.515,61.358 139.045,60.207 139.045,58.815C139.045,57.423 139.514,56.265 140.453,55.341C141.391,54.418 142.526,53.956 143.859,53.956C145.221,53.956 146.38,54.418 147.333,55.341C148.287,56.264 148.764,57.423 148.764,58.815C148.764,60.148 148.287,61.283 147.333,62.221C146.38,63.159 145.221,63.628 143.859,63.628ZM147.492,121.935L140.045,121.935L140.045,75.435L147.492,75.435L147.492,121.935Z" style="fill-rule:nonzero;"/>
        <path d="M194.264,119.801C190.692,121.95 186.453,123.025 181.549,123.025C174.919,123.025 169.568,120.868 165.496,116.554C161.424,112.24 159.389,106.647 159.389,99.775C159.389,92.116 161.584,85.963 165.973,81.316C170.362,76.669 176.22,74.345 183.547,74.345C187.634,74.345 191.236,75.102 194.355,76.616L194.355,84.245C190.904,81.823 187.21,80.612 183.275,80.612C178.522,80.612 174.625,82.315 171.582,85.72C168.54,89.126 167.019,93.599 167.019,99.139C167.019,104.588 168.45,108.887 171.31,112.035C174.171,115.184 178.008,116.758 182.822,116.758C186.879,116.758 190.693,115.411 194.265,112.716L194.265,119.801L194.264,119.801Z" style="fill-rule:nonzero;"/>
        <path d="M229.775,82.973C228.473,81.974 226.596,81.474 224.144,81.474C220.965,81.474 218.309,82.973 216.174,85.97C214.04,88.967 212.973,93.054 212.973,98.231L212.973,121.935L205.526,121.935L205.526,75.435L212.973,75.435L212.973,85.017L213.155,85.017C214.215,81.747 215.834,79.197 218.014,77.365C220.194,75.534 222.63,74.618 225.325,74.618C227.262,74.618 228.746,74.83 229.775,75.254L229.775,82.973Z" style="fill-rule:nonzero;"/>
        <path d="M256.068,123.025C249.195,123.025 243.709,120.853 239.607,116.508C235.505,112.164 233.454,106.404 233.454,99.23C233.454,91.419 235.588,85.319 239.857,80.93C244.126,76.541 249.893,74.346 257.158,74.346C264.09,74.346 269.502,76.48 273.392,80.749C277.282,85.018 279.227,90.937 279.227,98.504C279.227,105.921 277.13,111.862 272.937,116.327C268.744,120.792 263.121,123.025 256.068,123.025ZM256.613,80.612C251.829,80.612 248.046,82.239 245.26,85.494C242.474,88.748 241.082,93.236 241.082,98.958C241.082,104.468 242.49,108.812 245.305,111.991C248.12,115.17 251.889,116.759 256.612,116.759C261.425,116.759 265.126,115.2 267.715,112.082C270.303,108.964 271.597,104.529 271.597,98.777C271.597,92.964 270.303,88.485 267.715,85.336C265.127,82.186 261.426,80.612 256.613,80.612Z" style="fill-rule:nonzero;"/>
        <path d="M288.309,120.255L288.309,112.263C292.366,115.26 296.83,116.759 301.705,116.759C308.244,116.759 311.514,114.579 311.514,110.22C311.514,108.979 311.234,107.927 310.674,107.064C310.113,106.202 309.357,105.437 308.403,104.771C307.449,104.105 306.329,103.507 305.043,102.977C303.756,102.448 302.371,101.895 300.888,101.32C298.829,100.503 297.02,99.678 295.461,98.845C293.902,98.012 292.601,97.074 291.556,96.03C290.512,94.985 289.724,93.798 289.195,92.465C288.665,91.133 288.401,89.574 288.401,87.788C288.401,85.608 288.901,83.679 289.9,81.998C290.899,80.318 292.231,78.91 293.896,77.775C295.561,76.639 297.46,75.784 299.595,75.209C301.729,74.634 303.931,74.346 306.202,74.346C310.228,74.346 313.831,75.043 317.01,76.435L317.01,83.973C313.589,81.733 309.654,80.613 305.203,80.613C303.81,80.613 302.554,80.772 301.434,81.09C300.314,81.408 299.352,81.855 298.55,82.43C297.748,83.005 297.127,83.694 296.689,84.496C296.25,85.298 296.03,86.184 296.03,87.152C296.03,88.363 296.249,89.377 296.689,90.194C297.127,91.011 297.771,91.738 298.619,92.374C299.466,93.01 300.496,93.585 301.707,94.1C302.917,94.615 304.295,95.175 305.839,95.78C307.898,96.568 309.744,97.377 311.379,98.21C313.014,99.043 314.406,99.981 315.557,101.025C316.707,102.069 317.593,103.273 318.214,104.635C318.834,105.997 319.145,107.617 319.145,109.494C319.145,111.795 318.638,113.793 317.624,115.488C316.61,117.184 315.255,118.592 313.56,119.711C311.864,120.831 309.912,121.664 307.702,122.209C305.492,122.754 303.176,123.026 300.754,123.026C295.968,123.025 291.821,122.101 288.309,120.255Z" style="fill-rule:nonzero;"/>
        <path d="M350.022,123.025C343.149,123.025 337.663,120.853 333.56,116.508C329.457,112.164 327.407,106.404 327.407,99.23C327.407,91.419 329.542,85.319 333.81,80.93C338.079,76.541 343.846,74.346 351.112,74.346C358.044,74.346 363.456,76.48 367.345,80.749C371.234,85.018 373.18,90.937 373.18,98.504C373.18,105.921 371.084,111.862 366.891,116.327C362.698,120.792 357.075,123.025 350.022,123.025ZM350.567,80.612C345.783,80.612 341.999,82.239 339.213,85.494C336.427,88.749 335.035,93.236 335.035,98.958C335.035,104.468 336.443,108.812 339.259,111.991C342.075,115.17 345.844,116.759 350.567,116.759C355.38,116.759 359.081,115.2 361.67,112.082C364.258,108.964 365.552,104.529 365.552,98.777C365.552,92.964 364.258,88.485 361.67,85.336C359.081,82.186 355.38,80.612 350.567,80.612Z" style="fill-rule:nonzero;"/>
        <path d="M406.376,59.632C404.923,58.815 403.272,58.406 401.427,58.406C396.219,58.406 393.616,61.691 393.616,68.26L393.616,75.435L404.514,75.435L404.514,81.792L393.616,81.792L393.616,121.935L386.214,121.935L386.214,81.792L378.267,81.792L378.267,75.435L386.214,75.435L386.214,67.897C386.214,63.023 387.622,59.171 390.437,56.34C393.253,53.51 396.763,52.094 400.971,52.094C403.242,52.094 405.043,52.366 406.375,52.911L406.375,59.632L406.376,59.632Z" style="fill-rule:nonzero;"/>
        <path d="M435.755,121.481C433.999,122.45 431.684,122.934 428.808,122.934C420.664,122.934 416.593,118.393 416.593,109.311L416.593,81.792L408.601,81.792L408.601,75.435L416.593,75.435L416.593,64.082L424.04,61.675L424.04,75.434L435.755,75.434L435.755,81.791L424.04,81.791L424.04,107.994C424.04,111.112 424.569,113.337 425.629,114.669C426.689,116.002 428.444,116.667 430.897,116.667C432.774,116.667 434.394,116.152 435.755,115.123L435.755,121.481Z" style="fill-rule:nonzero;"/>
        <path d="M57.427,316.336L57.427,138.487L106.54,138.487C169.212,138.487 200.55,167.384 200.55,225.18C200.55,252.631 191.847,274.686 174.443,291.346C157.037,308.008 133.742,316.336 104.556,316.336L57.427,316.336ZM78.263,157.339L78.263,297.485L104.804,297.485C128.12,297.485 146.268,291.243 159.25,278.758C172.23,266.274 178.722,248.578 178.722,225.676C178.722,180.118 154.495,157.339 106.044,157.339L78.263,157.339Z" style="fill-rule:nonzero;"/>
        <path d="M243.214,157.091C239.575,157.091 236.474,155.851 233.912,153.37C231.348,150.89 230.067,147.748 230.067,143.944C230.067,140.142 231.348,136.979 233.912,134.456C236.474,131.935 239.575,130.673 243.214,130.673C246.935,130.673 250.097,131.935 252.702,134.456C255.306,136.979 256.609,140.142 256.609,143.944C256.609,147.583 255.307,150.684 252.702,153.246C250.097,155.81 246.935,157.091 243.214,157.091ZM253.136,316.336L232.796,316.336L232.796,189.336L253.136,189.336L253.136,316.336Z" style="fill-rule:nonzero;"/>
        <path d="M360.54,209.924C356.984,207.195 351.858,205.832 345.161,205.832C336.479,205.832 329.223,209.924 323.395,218.109C317.565,226.295 314.651,237.457 314.651,251.595L314.651,316.335L294.311,316.335L294.311,189.335L314.651,189.335L314.651,215.505L315.147,215.505C318.041,206.575 322.464,199.61 328.418,194.607C334.371,189.605 341.025,187.103 348.386,187.103C353.676,187.103 357.729,187.683 360.54,188.839L360.54,209.924Z" style="fill-rule:nonzero;"/>
        <path d="M481.339,257.922L391.67,257.922C391.999,272.061 395.804,282.975 403.08,290.664C410.354,298.353 420.36,302.197 433.094,302.197C447.398,302.197 460.544,297.484 472.533,288.058L472.533,307.158C461.371,315.263 446.612,319.312 428.257,319.312C410.315,319.312 396.216,313.546 385.965,302.011C375.712,290.478 370.586,274.251 370.586,253.331C370.586,233.571 376.187,217.47 387.392,205.024C398.594,192.581 412.506,186.358 429.125,186.358C445.744,186.358 458.6,191.734 467.696,202.481C476.791,213.231 481.339,228.155 481.339,247.254L481.339,257.922ZM460.503,240.682C460.42,228.944 457.589,219.805 452.007,213.274C446.427,206.743 438.675,203.475 428.753,203.475C419.16,203.475 411.018,206.907 404.32,213.77C397.622,220.633 393.487,229.604 391.918,240.682L460.503,240.682Z" style="fill-rule:nonzero;"/>
        <path d="M598.666,310.508C588.908,316.377 577.334,319.313 563.939,319.313C545.832,319.313 531.216,313.422 520.097,301.641C508.975,289.858 503.415,274.584 503.415,255.813C503.415,234.897 509.409,218.09 521.398,205.399C533.386,192.708 549.384,186.36 569.396,186.36C580.558,186.36 590.396,188.428 598.914,192.561L598.914,213.397C589.488,206.784 579.398,203.475 568.652,203.475C555.67,203.475 545.025,208.127 536.716,217.428C528.405,226.731 524.251,238.946 524.251,254.076C524.251,268.959 528.158,280.701 535.972,289.299C543.785,297.901 554.265,302.197 567.411,302.197C578.489,302.197 588.907,298.519 598.665,291.16L598.665,310.508L598.666,310.508Z" style="fill-rule:nonzero;"/>
        <path d="M688.334,315.096C683.539,317.742 677.213,319.065 669.359,319.065C647.115,319.065 635.996,306.663 635.996,281.858L635.996,206.7L614.168,206.7L614.168,189.337L635.996,189.337L635.996,158.332L656.336,151.759L656.336,189.338L688.334,189.338L688.334,206.701L656.336,206.701L656.336,278.264C656.336,286.78 657.781,292.858 660.678,296.494C663.571,300.135 668.367,301.951 675.065,301.951C680.19,301.951 684.614,300.547 688.335,297.734L688.335,315.096L688.334,315.096Z" style="fill-rule:nonzero;"/>
        <path d="M841.008,316.336L815.582,316.336L774.654,248.248C773.414,246.182 772.05,243.246 770.562,239.441L770.066,239.441C769.238,241.345 767.834,244.279 765.849,248.248L723.681,316.336L698.132,316.336L757.663,226.916L702.845,138.487L728.394,138.487L764.732,200.994C767.13,205.131 769.238,209.264 771.058,213.396L771.554,213.396C774.199,207.939 776.515,203.642 778.499,200.498L816.325,138.487L840.263,138.487L784.327,226.668L841.008,316.336Z" style="fill-rule:nonzero;"/>
        <path d="M858.01,316.337L858.01,309.773L883.635,309.773L883.635,209.773L856.213,219.539L856.213,212.351L890.822,200.32L890.822,309.774L916.056,309.774L916.056,316.337L858.01,316.337Z" style="fill-rule:nonzero;"/>
        <path d="M940.431,316.337L940.431,309.773L966.056,309.773L966.056,209.773L938.634,219.539L938.634,212.351L973.243,200.32L973.243,309.774L998.477,309.774L998.477,316.337L940.431,316.337Z" style="fill-rule:nonzero;"/>
        <path d="M452.474,86.881C449.032,86.881 446.096,85.667 443.667,83.237C441.237,80.808 440.023,77.872 440.023,74.43C440.023,70.988 441.237,68.053 443.667,65.623C446.096,63.194 449.032,61.979 452.474,61.979C455.905,61.979 458.835,63.194 461.265,65.623C463.694,68.053 464.909,70.988 464.909,74.43C464.909,77.872 463.694,80.808 461.265,83.237C458.835,85.667 455.905,86.881 452.474,86.881ZM452.474,63.44C449.441,63.44 446.851,64.514 444.704,66.661C442.557,68.808 441.483,71.398 441.483,74.431C441.483,77.464 442.556,80.051 444.704,82.192C446.851,84.334 449.441,85.404 452.474,85.404C455.506,85.404 458.094,84.333 460.235,82.192C462.376,80.051 463.447,77.463 463.447,74.431C463.447,71.399 462.376,68.809 460.235,66.661C458.094,64.513 455.506,63.44 452.474,63.44ZM458.517,82.216L455.827,82.216L454.1,78.414C453.225,76.511 452.285,75.559 451.278,75.559L449.817,75.559L449.817,82.216L447.609,82.216L447.609,66.378L452.058,66.378C453.906,66.378 455.331,66.766 456.333,67.54C457.334,68.315 457.835,69.366 457.835,70.694C457.835,71.779 457.483,72.703 456.781,73.466C456.078,74.23 455.096,74.744 453.834,75.01L453.834,75.076C454.708,75.264 455.577,76.238 456.44,77.998L458.517,82.216ZM449.818,68.271L449.818,73.683L452.192,73.683C454.372,73.683 455.463,72.776 455.463,70.96C455.463,69.986 455.17,69.294 454.583,68.885C453.996,68.476 453.066,68.271 451.794,68.271L449.818,68.271Z" style="fill-rule:nonzero;"/>
        <path d="M854.5,164.779C851.058,164.779 848.122,163.565 845.693,161.135C843.263,158.706 842.048,155.77 842.048,152.328C842.048,148.886 843.263,145.951 845.693,143.521C848.122,141.092 851.057,139.877 854.5,139.877C857.931,139.877 860.861,141.092 863.291,143.521C865.72,145.951 866.935,148.886 866.935,152.328C866.935,155.77 865.72,158.706 863.291,161.135C860.861,163.565 857.93,164.779 854.5,164.779ZM854.5,141.338C851.467,141.338 848.877,142.412 846.73,144.559C844.583,146.706 843.509,149.296 843.509,152.329C843.509,155.362 844.582,157.949 846.73,160.09C848.876,162.232 851.466,163.302 854.5,163.302C857.532,163.302 860.119,162.231 862.262,160.09C864.403,157.948 865.474,155.361 865.474,152.329C865.474,149.297 864.403,146.707 862.262,144.559C860.119,142.411 857.532,141.338 854.5,141.338ZM860.543,160.114L857.854,160.114L856.127,156.312C855.252,154.409 854.312,153.457 853.305,153.457L851.844,153.457L851.844,160.114L849.636,160.114L849.636,144.276L854.085,144.276C855.934,144.276 857.357,144.664 858.359,145.438C859.361,146.213 859.862,147.264 859.862,148.592C859.862,149.677 859.51,150.601 858.808,151.364C858.105,152.128 857.122,152.642 855.861,152.908L855.861,152.974C856.735,153.162 857.604,154.136 858.467,155.896L860.543,160.114ZM851.844,146.169L851.844,151.581L854.218,151.581C856.399,151.581 857.489,150.674 857.489,148.858C857.489,147.884 857.196,147.192 856.609,146.783C856.022,146.374 855.092,146.169 853.82,146.169L851.844,146.169Z" style="fill-rule:nonzero;"/>
    </g>
</svg>
