<?xml version="1.0"?>
<svg width="1050" height="350" xmlns="http://www.w3.org/2000/svg" xmlns:svg="http://www.w3.org/2000/svg" enable-background="new -57.427 -52.094 1050 350" version="1.1" xml:space="preserve">
 <g class="layer">
  <title>Layer 1</title>
  <path d="m66.5,69.84l-7.59,0l0,-43.68c0,-3.46 0.22,-7.68 0.64,-12.67l-0.18,0c-0.73,2.93 -1.38,5.04 -1.96,6.31l-22.25,50.04l-3.72,0l-22.21,-49.68c-0.63,-1.45 -1.28,-3.68 -1.95,-6.67l-0.18,0c0.24,2.6 0.36,6.85 0.36,12.76l0,43.59l-7.35,0l0,-65.12l10.08,0l19.98,45.41c1.54,3.48 2.54,6.09 2.99,7.81l0.28,0c1.3,-3.57 2.34,-6.23 3.13,-7.99l20.39,-45.23l9.54,0l0,65.12z" id="svg_1"/>
  <path d="m86.43,11.53c-1.33,0 -2.47,-0.45 -3.4,-1.36c-0.94,-0.91 -1.41,-2.06 -1.41,-3.45c0,-1.39 0.47,-2.55 1.41,-3.47c0.93,-0.93 2.07,-1.39 3.4,-1.39c1.36,0 2.52,0.46 3.48,1.39c0.95,0.92 1.43,2.08 1.43,3.47c0,1.33 -0.48,2.47 -1.43,3.41c-0.96,0.93 -2.12,1.4 -3.48,1.4zm3.63,58.31l-7.44,0l0,-46.5l7.44,0l0,46.5z" id="svg_2"/>
  <path d="m136.84,67.71c-3.58,2.15 -7.81,3.22 -12.72,3.22c-6.63,0 -11.98,-2.16 -16.05,-6.47c-4.07,-4.31 -6.11,-9.91 -6.11,-16.78c0,-7.66 2.2,-13.81 6.59,-18.46c4.38,-4.65 10.24,-6.97 17.57,-6.97c4.09,0 7.69,0.76 10.81,2.27l0,7.63c-3.45,-2.42 -7.15,-3.63 -11.08,-3.63c-4.76,0 -8.65,1.7 -11.69,5.11c-3.05,3.4 -4.57,7.87 -4.57,13.42c0,5.44 1.43,9.74 4.29,12.89c2.86,3.15 6.7,4.72 11.51,4.72c4.06,0 7.88,-1.34 11.45,-4.04l0,7.09z" id="svg_3"/>
  <path d="m172.35,30.88c-1.3,-1 -3.18,-1.5 -5.63,-1.5c-3.18,0 -5.84,1.5 -7.97,4.5c-2.14,2.99 -3.2,7.08 -3.2,12.26l0,23.7l-7.45,0l0,-46.5l7.45,0l0,9.58l0.18,0c1.06,-3.27 2.68,-5.82 4.86,-7.65c2.18,-1.83 4.61,-2.75 7.31,-2.75c1.94,0 3.42,0.22 4.45,0.64l0,7.72z" id="svg_4"/>
  <path d="m198.64,70.93c-6.87,0 -12.36,-2.17 -16.46,-6.52c-4.1,-4.34 -6.15,-10.1 -6.15,-17.27c0,-7.81 2.13,-13.91 6.4,-18.3c4.27,-4.39 10.04,-6.59 17.3,-6.59c6.93,0 12.34,2.14 16.24,6.41s5.83,10.18 5.83,17.75c0,7.42 -2.1,13.36 -6.29,17.82c-4.19,4.47 -9.82,6.7 -16.87,6.7zm0.55,-42.41c-4.79,0 -8.57,1.62 -11.36,4.88c-2.78,3.25 -4.17,7.74 -4.17,13.46c0,5.51 1.4,9.86 4.22,13.04s6.58,4.76 11.31,4.76c4.81,0 8.51,-1.55 11.1,-4.67c2.59,-3.12 3.88,-7.56 3.88,-13.31c0,-5.81 -1.29,-10.29 -3.88,-13.44c-2.59,-3.15 -6.29,-4.72 -11.1,-4.72z" id="svg_5"/>
  <path d="m230.88,68.16l0,-7.99c4.06,3 8.52,4.5 13.4,4.5c6.54,0 9.81,-2.18 9.81,-6.54c0,-1.24 -0.28,-2.3 -0.84,-3.16c-0.56,-0.86 -1.32,-1.63 -2.27,-2.29c-0.96,-0.67 -2.08,-1.27 -3.36,-1.8c-1.29,-0.53 -2.68,-1.08 -4.16,-1.65c-2.06,-0.82 -3.87,-1.65 -5.43,-2.48s-2.86,-1.77 -3.9,-2.81c-1.04,-1.05 -1.83,-2.24 -2.36,-3.57c-0.53,-1.33 -0.8,-2.89 -0.8,-4.68c0,-2.18 0.5,-4.1 1.5,-5.79c1,-1.68 2.33,-3.08 4,-4.22c1.66,-1.13 3.56,-1.99 5.7,-2.56c2.13,-0.58 4.33,-0.87 6.61,-0.87c4.02,0 7.62,0.7 10.8,2.09l0,7.54c-3.42,-2.24 -7.35,-3.36 -11.8,-3.36c-1.4,0 -2.65,0.16 -3.77,0.48c-1.12,0.31 -2.08,0.76 -2.89,1.34c-0.8,0.57 -1.42,1.26 -1.86,2.06c-0.44,0.8 -0.66,1.69 -0.66,2.66c0,1.21 0.22,2.22 0.66,3.04c0.44,0.82 1.08,1.54 1.93,2.18c0.85,0.64 1.88,1.21 3.09,1.73c1.21,0.51 2.59,1.07 4.13,1.68c2.06,0.78 3.91,1.59 5.54,2.43s3.03,1.77 4.18,2.81c1.15,1.05 2.04,2.25 2.66,3.61c0.62,1.36 0.93,2.98 0.93,4.86c0,2.3 -0.51,4.3 -1.52,5.99c-1.02,1.7 -2.37,3.11 -4.07,4.23c-1.69,1.12 -3.65,1.95 -5.86,2.5c-2.21,0.54 -4.52,0.81 -6.94,0.81c-4.79,0 -8.94,-0.92 -12.45,-2.77z" id="svg_6"/>
  <path d="m292.6,70.93c-6.88,0 -12.36,-2.17 -16.47,-6.52c-4.1,-4.34 -6.15,-10.1 -6.15,-17.27c0,-7.81 2.14,-13.91 6.4,-18.3c4.27,-4.39 10.04,-6.59 17.31,-6.59c6.93,0 12.34,2.14 16.23,6.41s5.83,10.18 5.83,17.75c0,7.42 -2.09,13.36 -6.29,17.82c-4.19,4.47 -9.81,6.7 -16.86,6.7zm0.54,-42.41c-4.78,0 -8.57,1.62 -11.35,4.88s-4.18,7.74 -4.18,13.46c0,5.51 1.41,9.86 4.22,13.04s6.59,4.76 11.31,4.76c4.81,0 8.51,-1.55 11.1,-4.67c2.59,-3.12 3.89,-7.56 3.89,-13.31c0,-5.81 -1.3,-10.29 -3.89,-13.44c-2.59,-3.15 -6.29,-4.72 -11.1,-4.72z" id="svg_7"/>
  <path d="m348.95,7.54c-1.45,-0.82 -3.1,-1.23 -4.95,-1.23c-5.21,0 -7.81,3.29 -7.81,9.86l0,7.17l10.9,0l0,6.36l-10.9,0l0,40.14l-7.4,0l0,-40.14l-7.95,0l0,-6.36l7.95,0l0,-7.54c0,-4.87 1.41,-8.72 4.22,-11.55c2.82,-2.83 6.33,-4.25 10.53,-4.25c2.27,0 4.08,0.27 5.41,0.82l0,6.72z" id="svg_8"/>
  <path d="m378.33,69.39c-1.76,0.97 -4.07,1.45 -6.95,1.45c-8.14,0 -12.21,-4.54 -12.21,-13.62l0,-27.52l-8,0l0,-6.36l8,0l0,-11.35l7.44,-2.41l0,13.76l11.72,0l0,6.36l-11.72,0l0,26.2c0,3.12 0.53,5.34 1.59,6.67c1.06,1.34 2.82,2 5.27,2c1.88,0 3.5,-0.51 4.86,-1.54l0,6.36z" id="svg_9"/>
  <path d="m0,264.24l0,-177.85l49.11,0c62.67,0 94.01,28.9 94.01,86.7c0,27.45 -8.7,49.5 -26.1,66.16c-17.41,16.66 -40.71,24.99 -69.89,24.99l-47.13,0zm20.84,-158.99l0,140.14l26.54,0c23.31,0 41.46,-6.24 54.44,-18.73c12.98,-12.48 19.47,-30.18 19.47,-53.08c0,-45.56 -24.22,-68.34 -72.67,-68.34l-27.78,0l0,0.01z" id="svg_10"/>
  <path d="m185.79,105c-3.64,0 -6.74,-1.24 -9.3,-3.72c-2.57,-2.48 -3.85,-5.63 -3.85,-9.43c0,-3.8 1.28,-6.97 3.85,-9.49c2.56,-2.52 5.66,-3.78 9.3,-3.78c3.72,0 6.88,1.26 9.49,3.78c2.6,2.52 3.9,5.69 3.9,9.49c0,3.64 -1.3,6.74 -3.9,9.3c-2.61,2.57 -5.77,3.85 -9.49,3.85zm9.92,159.24l-20.34,0l0,-127l20.34,0l0,127z" id="svg_11"/>
  <path d="m303.11,157.83c-3.55,-2.73 -8.68,-4.09 -15.38,-4.09c-8.68,0 -15.93,4.09 -21.76,12.27c-5.83,8.19 -8.75,19.35 -8.75,33.49l0,64.74l-20.34,0l0,-127l20.34,0l0,26.17l0.5,0c2.89,-8.93 7.32,-15.89 13.27,-20.9c5.95,-5 12.61,-7.5 19.97,-7.5c5.29,0 9.34,0.58 12.15,1.74l0,21.08z" id="svg_12"/>
  <path d="m423.91,205.83l-89.67,0c0.33,14.14 4.14,25.05 11.41,32.74c7.28,7.69 17.28,11.53 30.02,11.53c14.3,0 27.45,-4.71 39.44,-14.14l0,19.1c-11.17,8.11 -25.92,12.16 -44.28,12.16c-17.94,0 -32.04,-5.77 -42.29,-17.3c-10.25,-11.54 -15.38,-27.76 -15.38,-48.68c0,-19.76 5.6,-35.86 16.8,-48.31c11.21,-12.44 25.12,-18.67 41.74,-18.67s29.47,5.38 38.57,16.13c9.09,10.75 13.64,25.67 13.64,44.77l0,10.67zm-20.83,-17.24c-0.09,-11.74 -2.92,-20.88 -8.5,-27.41c-5.58,-6.53 -13.33,-9.8 -23.25,-9.8c-9.6,0 -17.74,3.43 -24.44,10.3s-10.83,15.83 -12.4,26.91l68.59,0z" id="svg_13"/>
  <path d="m541.24,258.41c-9.76,5.87 -21.33,8.81 -34.73,8.81c-18.1,0 -32.72,-5.89 -43.84,-17.67c-11.12,-11.79 -16.68,-27.06 -16.68,-45.83c0,-20.92 5.99,-37.72 17.98,-50.41c11.99,-12.7 27.99,-19.04 48,-19.04c11.16,0 21,2.06 29.52,6.2l0,20.83c-9.43,-6.61 -19.52,-9.92 -30.26,-9.92c-12.99,0 -23.63,4.65 -31.94,13.95c-8.31,9.31 -12.47,21.52 -12.47,36.65c0,14.89 3.91,26.63 11.73,35.22c7.81,8.61 18.29,12.9 31.43,12.9c11.08,0 21.5,-3.68 31.26,-11.03l0,19.34z" id="svg_14"/>
  <path d="m630.91,263c-4.8,2.65 -11.12,3.97 -18.98,3.97c-22.24,0 -33.36,-12.4 -33.36,-37.21l0,-75.15l-21.83,0l0,-17.37l21.83,0l0,-31l20.34,-6.58l0,37.58l32,0l0,17.37l-32,0l0,71.56c0,8.52 1.44,14.59 4.34,18.23c2.89,3.64 7.69,5.46 14.39,5.46c5.12,0 9.55,-1.41 13.27,-4.22l0,17.36z" id="svg_15"/>
  <path d="m783.58,264.24l-25.43,0l-40.92,-68.09c-1.24,-2.06 -2.61,-5 -4.1,-8.8l-0.49,0c-0.83,1.9 -2.23,4.84 -4.22,8.8l-42.17,68.09l-25.54,0l59.53,-89.42l-54.82,-88.43l25.55,0l36.33,62.51c2.4,4.14 4.51,8.27 6.33,12.4l0.5,0c2.64,-5.46 4.96,-9.75 6.94,-12.9l37.83,-62.01l23.94,0l-55.94,88.18l56.68,89.67z" id="svg_16" transform="matrix(1 0 0 1 0 0)"/>
  <path d="m395.05,34.79c-3.44,0 -6.38,-1.22 -8.81,-3.65c-2.43,-2.43 -3.64,-5.36 -3.64,-8.8c0,-3.45 1.21,-6.38 3.64,-8.81c2.43,-2.43 5.37,-3.65 8.81,-3.65c3.43,0 6.36,1.22 8.79,3.65c2.43,2.43 3.64,5.36 3.64,8.81c0,3.44 -1.21,6.37 -3.64,8.8c-2.43,2.43 -5.36,3.65 -8.79,3.65zm0,-23.44c-3.04,0 -5.63,1.07 -7.77,3.22c-2.15,2.14 -3.22,4.73 -3.22,7.77c0,3.03 1.07,5.62 3.22,7.76c2.14,2.14 4.73,3.21 7.77,3.21c3.03,0 5.62,-1.07 7.76,-3.21s3.21,-4.73 3.21,-7.76c0,-3.03 -1.07,-5.62 -3.21,-7.77c-2.14,-2.15 -4.73,-3.22 -7.76,-3.22zm6.04,18.77l-2.69,0l-1.73,-3.8c-0.87,-1.9 -1.81,-2.86 -2.82,-2.86l-1.46,0l0,6.66l-2.21,0l0,-15.84l4.45,0c1.85,0 3.27,0.39 4.28,1.17c1,0.77 1.5,1.82 1.5,3.15c0,1.09 -0.35,2.01 -1.06,2.77c-0.7,0.77 -1.68,1.28 -2.94,1.55l0,0.06c0.87,0.19 1.74,1.16 2.6,2.92l2.08,4.22zm-8.7,-13.94l0,5.41l2.38,0c2.18,0 3.27,-0.91 3.27,-2.72c0,-0.98 -0.3,-1.67 -0.88,-2.08c-0.59,-0.41 -1.52,-0.61 -2.79,-0.61l-1.98,0z" id="svg_19"/>
  <path d="m797.07,112.69c-3.44,0 -6.38,-1.22 -8.8,-3.65c-2.43,-2.43 -3.65,-5.36 -3.65,-8.81c0,-3.44 1.22,-6.37 3.65,-8.8c2.42,-2.43 5.36,-3.65 8.8,-3.65c3.43,0 6.36,1.22 8.79,3.65c2.43,2.43 3.65,5.36 3.65,8.8c0,3.45 -1.22,6.38 -3.65,8.81c-2.43,2.43 -5.36,3.65 -8.79,3.65zm0,-23.45c-3.03,0 -5.62,1.08 -7.77,3.23c-2.14,2.14 -3.22,4.73 -3.22,7.76c0,3.04 1.07,5.63 3.22,7.77c2.15,2.14 4.74,3.21 7.77,3.21c3.04,0 5.62,-1.07 7.77,-3.21c2.14,-2.15 3.21,-4.73 3.21,-7.77c0,-3.03 -1.07,-5.62 -3.21,-7.76c-2.15,-2.15 -4.73,-3.23 -7.77,-3.23zm6.05,18.78l-2.69,0l-1.73,-3.8c-0.87,-1.91 -1.82,-2.86 -2.82,-2.86l-1.46,0l0,6.66l-2.21,0l0,-15.84l4.45,0c1.85,0 3.27,0.39 4.27,1.16c1,0.78 1.51,1.83 1.51,3.16c0,1.08 -0.36,2.01 -1.06,2.77c-0.7,0.76 -1.68,1.28 -2.95,1.54l0,0.07c0.88,0.19 1.75,1.16 2.61,2.92l2.08,4.22zm-8.7,-13.94l0,5.41l2.37,0c2.18,0 3.27,-0.91 3.27,-2.73c0,-0.97 -0.29,-1.66 -0.88,-2.07c-0.58,-0.41 -1.52,-0.61 -2.79,-0.61l-1.97,0z" id="svg_20"/>
  <text fill="#000000" font-family="Monospace" font-size="24" font-style="normal" font-weight="normal" id="svg_21" stroke="#000000" stroke-width="0" text-anchor="middle" transform="matrix(6.1326 0 0 7.65025 -4321.45 -1066.45)" x="846.29" xml:space="preserve" y="173.95">12</text>
 </g>
</svg>