<?xml version="1.0" encoding="UTF-8"?>
<!-- Generator: Adobe Illustrator 15.0.2, SVG Export Plug-In  -->
<!DOCTYPE svg PUBLIC "-//W3C//DTD SVG 1.1//EN" "http://www.w3.org/Graphics/SVG/1.1/DTD/svg11.dtd">
<svg version="1.1" xmlns="http://www.w3.org/2000/svg" xmlns:xlink="http://www.w3.org/1999/xlink" xmlns:a="http://ns.adobe.com/AdobeSVGViewerExtensions/3.0/" x="0px" y="0px" width="1050px" height="350px" viewBox="-57.427 -52.094 1050 350" enable-background="new -57.427 -52.094 1050 350" xml:space="preserve">
<defs>
</defs>
<path d="M66.497,69.841h-7.583V26.156c0-3.451,0.211-7.674,0.636-12.669h-0.182c-0.727,2.937-1.378,5.041-1.953,6.312L35.164,69.841  H31.44L9.235,20.162c-0.636-1.453-1.287-3.678-1.953-6.675H7.101c0.242,2.604,0.363,6.857,0.363,12.76v43.594H0.107V4.723h10.081  l19.98,45.41c1.544,3.481,2.543,6.085,2.997,7.811h0.272c1.301-3.572,2.346-6.236,3.133-7.992L56.961,4.723h9.536V69.841z"/>
<path d="M86.432,11.534c-1.333,0-2.468-0.454-3.406-1.362c-0.938-0.908-1.408-2.059-1.408-3.451c0-1.392,0.469-2.55,1.408-3.474  c0.938-0.923,2.073-1.385,3.406-1.385c1.362,0,2.521,0.462,3.474,1.385c0.954,0.923,1.431,2.082,1.431,3.474  c0,1.333-0.477,2.468-1.431,3.406C88.953,11.065,87.794,11.534,86.432,11.534z M90.065,69.841h-7.447v-46.5h7.447V69.841z"/>
<path d="M136.837,67.707c-3.572,2.149-7.811,3.224-12.715,3.224c-6.63,0-11.981-2.157-16.053-6.471  c-4.072-4.314-6.107-9.907-6.107-16.779c0-7.659,2.195-13.812,6.584-18.459c4.389-4.647,10.247-6.971,17.574-6.971  c4.087,0,7.689,0.757,10.808,2.271v7.629c-3.451-2.422-7.145-3.633-11.08-3.633c-4.753,0-8.65,1.703-11.693,5.108  c-3.042,3.406-4.563,7.879-4.563,13.419c0,5.449,1.431,9.748,4.291,12.896c2.861,3.149,6.698,4.723,11.512,4.723  c4.057,0,7.871-1.347,11.443-4.042V67.707z"/>
<path d="M172.348,30.879c-1.302-0.999-3.179-1.499-5.631-1.499c-3.179,0-5.835,1.499-7.97,4.496  c-2.134,2.997-3.201,7.084-3.201,12.261v23.704h-7.447v-46.5h7.447v9.582h0.182c1.06-3.27,2.679-5.82,4.859-7.652  c2.18-1.831,4.616-2.747,7.311-2.747c1.937,0,3.421,0.212,4.45,0.636V30.879z"/>
<path d="M198.641,70.931c-6.873,0-12.359-2.172-16.461-6.517c-4.102-4.344-6.153-10.104-6.153-17.278  c0-7.811,2.134-13.911,6.403-18.3c4.269-4.389,10.036-6.584,17.301-6.584c6.932,0,12.344,2.134,16.234,6.403  s5.835,10.188,5.835,17.755c0,7.417-2.097,13.358-6.29,17.823C211.317,68.698,205.694,70.931,198.641,70.931z M199.186,28.518  c-4.784,0-8.567,1.627-11.353,4.882c-2.786,3.254-4.178,7.742-4.178,13.464c0,5.51,1.408,9.854,4.223,13.033  s6.584,4.768,11.307,4.768c4.813,0,8.514-1.559,11.103-4.677c2.588-3.118,3.882-7.553,3.882-13.305  c0-5.813-1.294-10.292-3.882-13.441C207.7,30.092,203.999,28.518,199.186,28.518z"/>
<path d="M230.882,68.161v-7.992c4.057,2.997,8.521,4.496,13.396,4.496c6.539,0,9.809-2.18,9.809-6.539  c0-1.241-0.28-2.293-0.84-3.156c-0.561-0.862-1.317-1.627-2.271-2.293c-0.954-0.666-2.074-1.264-3.36-1.794  c-1.287-0.529-2.672-1.082-4.155-1.657c-2.059-0.817-3.868-1.642-5.427-2.475s-2.86-1.771-3.905-2.815  c-1.044-1.045-1.832-2.232-2.361-3.565c-0.53-1.332-0.794-2.891-0.794-4.677c0-2.18,0.5-4.109,1.499-5.79  c0.999-1.68,2.331-3.088,3.996-4.223c1.665-1.136,3.564-1.991,5.699-2.566c2.134-0.575,4.336-0.863,6.607-0.863  c4.026,0,7.629,0.697,10.808,2.089v7.538c-3.421-2.24-7.356-3.36-11.807-3.36c-1.393,0-2.649,0.159-3.769,0.477  c-1.12,0.318-2.082,0.765-2.884,1.34c-0.802,0.575-1.423,1.264-1.861,2.066c-0.439,0.802-0.659,1.688-0.659,2.656  c0,1.211,0.219,2.225,0.659,3.042c0.438,0.817,1.082,1.544,1.93,2.18c0.847,0.636,1.877,1.211,3.088,1.726  c1.21,0.515,2.588,1.075,4.132,1.68c2.059,0.788,3.905,1.597,5.54,2.43s3.027,1.771,4.178,2.815c1.15,1.044,2.036,2.248,2.657,3.61  c0.62,1.362,0.931,2.982,0.931,4.859c0,2.301-0.507,4.299-1.521,5.994c-1.014,1.696-2.369,3.104-4.064,4.223  c-1.696,1.12-3.648,1.953-5.858,2.498c-2.21,0.545-4.526,0.817-6.948,0.817C238.541,70.931,234.394,70.007,230.882,68.161z"/>
<path d="M292.595,70.931c-6.873,0-12.359-2.172-16.462-6.517c-4.103-4.344-6.153-10.104-6.153-17.278  c0-7.811,2.135-13.911,6.403-18.3c4.269-4.389,10.036-6.584,17.302-6.584c6.932,0,12.344,2.134,16.233,6.403  s5.835,10.188,5.835,17.755c0,7.417-2.096,13.358-6.289,17.823C305.271,68.698,299.648,70.931,292.595,70.931z M293.14,28.518  c-4.784,0-8.568,1.627-11.354,4.882s-4.178,7.742-4.178,13.464c0,5.51,1.408,9.854,4.224,13.033s6.585,4.768,11.308,4.768  c4.813,0,8.514-1.559,11.103-4.677c2.588-3.118,3.882-7.553,3.882-13.305c0-5.813-1.294-10.292-3.882-13.441  C301.654,30.092,297.953,28.518,293.14,28.518z"/>
<path d="M348.949,7.538c-1.453-0.817-3.104-1.226-4.949-1.226c-5.208,0-7.811,3.285-7.811,9.854v7.175h10.898v6.357h-10.898v40.143  h-7.402V29.698h-7.947v-6.357h7.947v-7.538c0-4.874,1.408-8.726,4.223-11.557C335.826,1.416,339.336,0,343.544,0  c2.271,0,4.072,0.272,5.404,0.817V7.538z"/>
<path d="M378.328,69.387c-1.756,0.969-4.071,1.453-6.947,1.453c-8.144,0-12.215-4.541-12.215-13.623V29.698h-7.992v-6.357h7.992  V11.988l7.447-2.407v13.759h11.715v6.357h-11.715V55.9c0,3.118,0.529,5.343,1.589,6.675c1.06,1.333,2.815,1.998,5.268,1.998  c1.877,0,3.497-0.515,4.858-1.544V69.387z"/>
<path d="M0,264.242V86.393h49.113c62.672,0,94.01,28.897,94.01,86.693c0,27.451-8.703,49.506-26.107,66.166  c-17.406,16.662-40.701,24.99-69.887,24.99H0z M20.836,105.245v140.146h26.541c23.316,0,41.464-6.242,54.446-18.727  c12.98-12.484,19.472-30.18,19.472-53.082c0-45.558-24.227-68.337-72.678-68.337H20.836z"/>
<path d="M185.787,104.997c-3.639,0-6.74-1.24-9.302-3.721c-2.564-2.48-3.845-5.622-3.845-9.426c0-3.802,1.281-6.965,3.845-9.488  c2.562-2.521,5.663-3.783,9.302-3.783c3.721,0,6.883,1.262,9.488,3.783c2.604,2.523,3.907,5.686,3.907,9.488  c0,3.639-1.302,6.74-3.907,9.302C192.67,103.716,189.508,104.997,185.787,104.997z M195.709,264.242h-20.34v-127h20.34V264.242z"/>
<path d="M303.113,157.83c-3.556-2.729-8.682-4.092-15.379-4.092c-8.682,0-15.938,4.092-21.766,12.277  c-5.83,8.186-8.744,19.348-8.744,33.486v64.74h-20.34v-127h20.34v26.17h0.496c2.894-8.93,7.317-15.895,13.271-20.898  c5.953-5.002,12.607-7.504,19.968-7.504c5.29,0,9.343,0.58,12.154,1.736V157.83z"/>
<path d="M423.912,205.828h-89.669c0.329,14.139,4.134,25.053,11.41,32.742c7.274,7.689,17.28,11.533,30.014,11.533  c14.304,0,27.45-4.713,39.439-14.139v19.1c-11.162,8.105-25.921,12.154-44.276,12.154c-17.942,0-32.041-5.766-42.292-17.301  c-10.253-11.533-15.379-27.76-15.379-48.68c0-19.76,5.601-35.861,16.806-48.307c11.202-12.443,25.114-18.666,41.733-18.666  s29.475,5.376,38.571,16.123c9.095,10.75,13.643,25.674,13.643,44.773V205.828z M403.076,188.588  c-0.083-11.738-2.914-20.877-8.496-27.408c-5.58-6.531-13.332-9.799-23.254-9.799c-9.593,0-17.735,3.432-24.433,10.295  s-10.833,15.834-12.402,26.912H403.076z"/>
<path d="M541.239,258.414c-9.758,5.869-21.332,8.805-34.727,8.805c-18.107,0-32.723-5.891-43.842-17.672  c-11.122-11.783-16.682-27.057-16.682-45.828c0-20.916,5.994-37.723,17.983-50.414c11.988-12.691,27.986-19.039,47.998-19.039  c11.162,0,21,2.068,29.518,6.201v20.836c-9.426-6.613-19.516-9.922-30.262-9.922c-12.982,0-23.627,4.652-31.936,13.953  c-8.311,9.303-12.465,21.518-12.465,36.648c0,14.883,3.907,26.625,11.721,35.223c7.813,8.602,18.293,12.898,31.439,12.898  c11.078,0,21.496-3.678,31.254-11.037V258.414z"/>
<path d="M630.907,263.002c-4.795,2.646-11.121,3.969-18.975,3.969c-22.244,0-33.363-12.402-33.363-37.207v-75.158h-21.828v-17.363  h21.828v-31.005l20.34-6.573v37.579h31.998v17.363h-31.998v71.563c0,8.516,1.445,14.594,4.342,18.23  c2.893,3.641,7.689,5.457,14.387,5.457c5.125,0,9.549-1.404,13.27-4.217V263.002z"/>
<path d="M783.581,264.242h-25.426l-40.928-68.088c-1.24-2.066-2.604-5.002-4.092-8.807h-0.496c-0.828,1.904-2.232,4.838-4.217,8.807  l-42.168,68.088h-25.549l59.531-89.42l-54.818-88.429h25.549l36.338,62.507c2.398,4.137,4.506,8.27,6.326,12.402h0.496  c2.645-5.457,4.961-9.754,6.945-12.898l37.826-62.011h23.938l-55.936,88.181L783.581,264.242z"/>
<path d="M800.583,264.242v-6.563h25.625v-100l-27.422,9.766v-7.188l34.609-12.031V257.68h25.234v6.563H800.583z"/>
<path d="M883.004,264.242v-6.563h25.625v-100l-27.422,9.766v-7.188l34.609-12.031V257.68h25.234v6.563H883.004z"/>
<path d="M395.047,34.787c-3.442,0-6.378-1.214-8.807-3.644c-2.43-2.429-3.644-5.365-3.644-8.807c0-3.442,1.214-6.377,3.644-8.807  c2.429-2.429,5.365-3.644,8.807-3.644c3.431,0,6.361,1.215,8.791,3.644c2.429,2.43,3.644,5.365,3.644,8.807  c0,3.442-1.215,6.378-3.644,8.807C401.408,33.573,398.478,34.787,395.047,34.787z M395.047,11.346c-3.033,0-5.623,1.074-7.77,3.221  c-2.147,2.147-3.221,4.737-3.221,7.77c0,3.033,1.073,5.62,3.221,7.761c2.147,2.142,4.737,3.212,7.77,3.212  c3.032,0,5.62-1.071,7.761-3.212s3.212-4.729,3.212-7.761c0-3.032-1.071-5.622-3.212-7.77  C400.667,12.419,398.079,11.346,395.047,11.346z M401.09,30.122H398.4l-1.727-3.802c-0.875-1.903-1.815-2.855-2.822-2.855h-1.461  v6.657h-2.208V14.284h4.449c1.848,0,3.273,0.388,4.275,1.162c1.001,0.775,1.502,1.826,1.502,3.154c0,1.085-0.352,2.009-1.054,2.772  c-0.703,0.764-1.685,1.278-2.947,1.544v0.066c0.874,0.188,1.743,1.162,2.606,2.922L401.09,30.122z M392.391,16.177v5.412h2.374  c2.18,0,3.271-0.907,3.271-2.723c0-0.974-0.293-1.666-0.88-2.075c-0.587-0.409-1.517-0.614-2.789-0.614H392.391z"/>
<path d="M797.073,112.685c-3.442,0-6.378-1.214-8.807-3.644c-2.43-2.429-3.645-5.365-3.645-8.807c0-3.442,1.215-6.377,3.645-8.807  c2.429-2.429,5.364-3.644,8.807-3.644c3.431,0,6.361,1.215,8.791,3.644c2.429,2.43,3.644,5.365,3.644,8.807  c0,3.442-1.215,6.378-3.644,8.807C803.434,111.471,800.503,112.685,797.073,112.685z M797.073,89.244  c-3.033,0-5.623,1.074-7.77,3.221c-2.147,2.147-3.221,4.737-3.221,7.77c0,3.033,1.073,5.62,3.221,7.761  c2.146,2.142,4.736,3.212,7.77,3.212c3.032,0,5.619-1.071,7.762-3.212c2.141-2.142,3.212-4.729,3.212-7.761  c0-3.032-1.071-5.622-3.212-7.77C802.692,90.317,800.105,89.244,797.073,89.244z M803.116,108.02h-2.689l-1.727-3.802  c-0.875-1.903-1.815-2.855-2.822-2.855h-1.461v6.657h-2.208V92.182h4.449c1.849,0,3.272,0.388,4.274,1.162  c1.002,0.775,1.503,1.826,1.503,3.154c0,1.085-0.352,2.009-1.054,2.772c-0.703,0.764-1.686,1.278-2.947,1.544v0.066  c0.874,0.188,1.743,1.162,2.606,2.922L803.116,108.02z M794.417,94.075v5.412h2.374c2.181,0,3.271-0.907,3.271-2.723  c0-0.974-0.293-1.666-0.88-2.075c-0.587-0.409-1.517-0.614-2.789-0.614H794.417z"/>
</svg>