<?xml version="1.0" encoding="UTF-8" standalone="no"?>
<!DOCTYPE svg PUBLIC "-//W3C//DTD SVG 1.1//EN" "http://www.w3.org/Graphics/SVG/1.1/DTD/svg11.dtd">
<svg width="100%" height="100%" viewBox="0 0 1500 500" version="1.1" xmlns="http://www.w3.org/2000/svg" xmlns:xlink="http://www.w3.org/1999/xlink" xml:space="preserve" xmlns:serif="http://www.serif.com/" style="fill-rule:evenodd;clip-rule:evenodd;stroke-linecap:round;">
    <g id="OpenGL-ES" serif:id="OpenGL ES">
        <g>
            <g>
                <g>
                    <path d="M155.2,212.3C159,200.5 164.6,190.1 172.1,181C179.6,171.9 189,164.7 200.2,159.3C211.4,153.9 224.4,151.2 239.3,151.2C254.2,151.2 267.2,153.9 278.4,159.3C289.6,164.7 299,171.9 306.5,181C314,190.1 319.7,200.5 323.4,212.3C327.2,224.1 329.1,236.3 329.1,249C329.1,261.7 327.2,274 323.4,285.8C319.6,297.6 314,308 306.5,317.1C299,326.2 289.6,333.4 278.4,338.7C267.2,344 254.2,346.7 239.3,346.7C224.4,346.7 211.4,344 200.2,338.7C189,333.4 179.6,326.2 172.1,317.1C164.6,308 158.9,297.6 155.2,285.8C151.4,274 149.6,261.8 149.6,249C149.6,236.3 151.4,224.1 155.2,212.3ZM178.1,277C180.6,286.2 184.4,294.4 189.7,301.7C195,309 201.7,314.9 209.9,319.4C218.1,323.9 227.9,326.1 239.3,326.1C250.7,326.1 260.5,323.9 268.7,319.4C276.9,314.9 283.7,309.1 288.9,301.7C294.2,294.4 298,286.1 300.5,277C303,267.8 304.2,258.5 304.2,249.1C304.2,239.7 303,230.4 300.5,221.2C298,212 294.2,203.8 288.9,196.5C283.6,189.2 276.9,183.3 268.7,178.8C260.5,174.3 250.6,172.1 239.3,172.1C227.9,172.1 218.1,174.3 209.9,178.8C201.7,183.3 194.9,189.1 189.7,196.5C184.4,203.8 180.6,212.1 178.1,221.2C175.6,230.4 174.4,239.7 174.4,249.1C174.4,258.6 175.6,267.9 178.1,277Z" style="fill-rule:nonzero;"/>
                    <path d="M366.2,223.5L366.2,239.6L366.6,239.6C369.8,233 374.9,228.2 381.8,225.2C388.7,222.2 396.3,220.7 404.6,220.7C413.8,220.7 421.8,222.4 428.7,225.8C435.5,229.2 441.2,233.7 445.7,239.5C450.2,245.3 453.6,251.9 455.9,259.4C458.2,266.9 459.4,274.9 459.4,283.3C459.4,291.7 458.3,299.7 456.1,307.3C453.9,314.8 450.5,321.4 446,327C441.5,332.6 435.8,337 429,340.2C422.2,343.4 414.2,345 405.2,345C402.3,345 399,344.7 395.4,344.1C391.8,343.5 388.2,342.5 384.7,341.1C381.2,339.7 377.8,337.8 374.7,335.4C371.6,333 368.9,330.1 366.8,326.5L366.4,326.5L366.4,388L346.7,388L346.7,223.5L366.2,223.5ZM436.2,265.8C434.7,260.5 432.5,255.8 429.5,251.6C426.5,247.5 422.7,244.2 418,241.7C413.3,239.2 407.9,238 401.6,238C395,238 389.4,239.3 384.8,241.9C380.2,244.5 376.5,247.9 373.5,252.1C370.6,256.3 368.5,261.1 367.2,266.5C365.9,271.9 365.3,277.3 365.3,282.8C365.3,288.6 366,294.3 367.4,299.7C368.8,305.2 371,309.9 373.9,314.1C376.9,318.2 380.7,321.6 385.5,324.1C390.3,326.6 396,327.9 402.7,327.9C409.4,327.9 415.1,326.6 419.6,324C424.1,321.4 427.8,317.9 430.5,313.6C433.3,309.3 435.2,304.4 436.5,298.9C437.7,293.4 438.3,287.7 438.3,281.9C438.4,276.5 437.7,271.1 436.2,265.8Z" style="fill-rule:nonzero;"/>
                    <path d="M560,334.9C551.1,341.6 539.9,345 526.3,345C516.8,345 508.5,343.5 501.5,340.4C494.5,337.3 488.6,333 483.8,327.5C479,322 475.5,315.4 473.1,307.7C470.7,300 469.4,291.7 469.1,282.6C469.1,273.5 470.5,265.3 473.3,257.7C476.1,250.2 480,243.7 485,238.1C490,232.6 495.9,228.3 502.8,225.2C509.6,222.1 517.2,220.6 525.3,220.6C535.9,220.6 544.7,222.8 551.7,227.2C558.7,231.6 564.3,237.2 568.6,243.9C572.8,250.7 575.8,258.1 577.4,266C579,274 579.7,281.6 579.4,288.8L490,288.8C489.8,294 490.5,299 491.8,303.6C493.2,308.3 495.4,312.4 498.5,316C501.6,319.6 505.5,322.5 510.2,324.6C515,326.7 520.6,327.8 527,327.8C535.3,327.8 542.1,325.9 547.4,322C552.7,318.2 556.2,312.3 557.9,304.5L577.3,304.5C574.7,318.1 568.9,328.2 560,334.9ZM555.2,258.5C553.4,254.4 551.1,250.8 548.1,247.8C545.1,244.8 541.6,242.4 537.5,240.7C533.4,238.9 529,238.1 524,238.1C518.9,238.1 514.4,239 510.3,240.7C506.2,242.5 502.8,244.9 499.8,247.9C496.9,251 494.6,254.5 492.9,258.6C491.2,262.7 490.2,267 489.9,271.6L558.2,271.6C558,267 557,262.7 555.2,258.5Z" style="fill-rule:nonzero;"/>
                    <path d="M610.9,223.5L610.9,242.4L611.3,242.4C619.5,228 632.4,220.7 650.2,220.7C658.1,220.7 664.6,221.8 669.9,223.9C675.1,226.1 679.4,229 682.6,232.9C685.8,236.7 688.1,241.3 689.4,246.6C690.7,251.9 691.4,257.8 691.4,264.2L691.4,342.6L671.7,342.6L671.7,262C671.7,254.6 669.5,248.8 665.2,244.5C660.9,240.2 655,238 647.4,238C641.4,238 636.2,238.9 631.8,240.8C627.4,242.6 623.7,245.3 620.8,248.6C617.9,252 615.7,255.9 614.2,260.5C612.7,265 612,270 612,275.4L612,342.7L592.3,342.7L592.3,223.5L610.9,223.5Z" style="fill-rule:nonzero;"/>
                    <path d="M827.8,341.4C818.9,345.2 809.9,347 800.8,347C786.5,347 773.6,344.5 762.1,339.5C750.7,334.5 741,327.6 733.1,318.9C725.2,310.1 719.2,299.9 715,288C710.8,276.2 708.7,263.4 708.7,249.8C708.7,235.8 710.8,222.8 715,210.8C719.2,198.8 725.2,188.3 733,179.4C740.8,170.5 750.5,163.5 761.9,158.4C773.3,153.3 786.2,150.8 800.6,150.8C810.2,150.8 819.5,152.3 828.5,155.1C837.5,158 845.6,162.3 852.9,167.9C860.2,173.5 866.1,180.4 870.9,188.7C875.6,196.9 878.5,206.4 879.6,217L840.3,217C837.9,206.5 833.1,198.7 826.1,193.4C819.1,188.2 810.6,185.5 800.7,185.5C791.4,185.5 783.6,187.3 777.1,190.9C770.6,194.5 765.4,199.3 761.4,205.3C757.4,211.3 754.5,218.2 752.6,225.9C750.8,233.6 749.8,241.6 749.8,249.8C749.8,257.7 750.7,265.3 752.6,272.8C754.5,280.3 757.4,286.9 761.4,292.9C765.4,298.9 770.7,303.6 777.1,307.2C783.6,310.8 791.4,312.6 800.7,312.6C814.3,312.6 824.9,309.2 832.3,302.3C839.7,295.4 844.1,285.4 845.3,272.4L804,272.4L804,241.6L882.5,241.6L882.5,342.8L856.4,342.8L852.2,321.6C844.9,331 836.7,337.6 827.8,341.4Z" style="fill-rule:nonzero;"/>
                    <path d="M949.3,155.6L949.3,307.9L1040.5,307.9L1040.5,342.7L908.2,342.7L908.2,155.6L949.3,155.6Z" style="fill-rule:nonzero;"/>
                </g>
                <path d="M755.1,365.9C692.3,404.1 598.2,425.8 493.2,425.8C304.1,425.8 150.8,347 150.8,249.9C150.8,152.8 304.1,74 493.2,74C598.6,74 693,96.1 755.8,134.6C687.3,70.3 564.4,25 423.8,25C208.5,25 34,125.7 34,249.9C34,374.2 208.5,475 423.7,475C563.7,475 686.4,429.9 755.1,365.9Z" style="fill-rule:nonzero;"/>
                <g>
                    <path d="M1102.8,155.2L1242.7,155.2L1242.7,189.8L1143.9,189.8L1143.9,229.9L1234.6,229.9L1234.6,261.9L1143.9,261.9L1143.9,307.8L1244.8,307.8L1244.8,342.4L1102.8,342.4L1102.8,155.2Z" style="fill-rule:nonzero;"/>
                    <path d="M1292.8,280.2C1292.8,305.1 1312.2,314.8 1334.2,314.8C1348.6,314.8 1370.6,310.6 1370.6,291.5C1370.6,271.3 1342.6,267.9 1315,260.6C1287.2,253.3 1259.2,242.5 1259.2,207.4C1259.2,169.1 1295.4,150.8 1329.2,150.8C1368.3,150.8 1404.2,167.8 1404.2,211.1L1364.4,211.1C1363.1,188.6 1347.1,182.8 1327.4,182.8C1314.3,182.8 1299.1,188.3 1299.1,204C1299.1,218.4 1308,220.3 1354.9,232.3C1368.5,235.7 1410.5,244.4 1410.5,286.8C1410.5,321.1 1383.5,346.8 1332.7,346.8C1291.3,346.8 1252.5,326.4 1253,280.2L1292.8,280.2Z" style="fill-rule:nonzero;"/>
                </g>
                <path d="M1070.5,102.9L1070.5,396.5" style="fill:none;fill-rule:nonzero;stroke:black;stroke-width:11.64px;"/>
            </g>
        </g>
        <g>
            <path d="M1436,160.6L1428.7,160.6L1428.7,179.5L1422.4,179.5L1422.4,160.6L1415.1,160.6L1415.1,155.1L1436,155.1L1436,160.6Z" style="fill-rule:nonzero;"/>
            <path d="M1438.9,155.2L1448.2,155.2L1452.4,171.4L1452.5,171.4L1456.7,155.2L1466,155.2L1466,179.6L1460,179.6L1460,161L1459.9,161L1454.8,179.5L1450,179.5L1444.9,161L1444.8,161L1444.8,179.5L1438.8,179.5L1438.9,155.2Z" style="fill-rule:nonzero;"/>
        </g>
        <g>
            <path d="M1003.8,172.5C1003.8,175.6 1003,178.6 1001.4,181.3C999.8,184 997.7,186.2 995,187.7C992.3,189.3 989.4,190 986.2,190C983.1,190 980.2,189.2 977.4,187.7C974.7,186.1 972.5,184 971,181.3C969.4,178.6 968.6,175.7 968.6,172.5C968.6,169.4 969.4,166.5 971,163.7C972.6,161 974.7,158.8 977.4,157.3C980.1,155.7 983,155 986.2,155C989.3,155 992.3,155.8 995,157.3C997.7,158.9 999.9,161 1001.4,163.7C1003,166.5 1003.8,169.4 1003.8,172.5ZM1000.4,172.5C1000.4,168.6 999,165.3 996.3,162.5C993.5,159.7 990.2,158.4 986.3,158.4C982.4,158.4 979.1,159.8 976.3,162.5C973.5,165.3 972.2,168.6 972.2,172.5C972.2,176.4 973.6,179.7 976.3,182.5C979.1,185.3 982.4,186.6 986.3,186.6C990.2,186.6 993.5,185.2 996.3,182.5C999,179.8 1000.4,176.4 1000.4,172.5ZM978.3,163.2L986.7,163.2C989.1,163.2 990.8,163.7 991.9,164.6C993,165.6 993.5,166.8 993.5,168.5C993.5,169.8 993.1,170.8 992.3,171.8C991.5,172.7 990.2,173.4 988.5,173.8C989.2,174.1 989.7,174.4 990.1,174.7C990.6,175.1 991.1,175.8 991.6,176.6C991.6,176.7 992.6,178.5 994.6,182L989,182C987.2,178.4 986,176.3 985.4,175.6C984.8,174.9 984.2,174.6 983.6,174.6C983.5,174.6 983.3,174.6 983,174.7L983,182.1L978.3,182.1L978.3,163.2ZM983,171.1L985,171.1C986.3,171.1 987.3,170.9 987.9,170.4C988.5,170 988.7,169.4 988.7,168.7C988.7,168 988.4,167.4 987.9,167C987.4,166.6 986.5,166.3 985.2,166.3L983,166.3L983,171.1Z" style="fill-rule:nonzero;"/>
        </g>
    </g>
</svg>
