<?xml version="1.0" encoding="UTF-8" standalone="no"?>
<!DOCTYPE svg PUBLIC "-//W3C//DTD SVG 1.1//EN" "http://www.w3.org/Graphics/SVG/1.1/DTD/svg11.dtd">
<svg width="100%" height="100%" viewBox="0 0 1500 500" version="1.1" xmlns="http://www.w3.org/2000/svg" xmlns:xlink="http://www.w3.org/1999/xlink" xml:space="preserve" xmlns:serif="http://www.serif.com/" style="fill-rule:evenodd;clip-rule:evenodd;stroke-linejoin:round;stroke-miterlimit:2;">
    <g id="OpenGL" transform="matrix(1,0,0,1,150,0)">
        <g>
            <path d="M182,212C185.85,200.2 191.63,189.8 199.3,180.7C207,171.63 216.6,164.4 228.1,159C239.6,153.6 252.9,150.89 268.1,150.89C283.3,150.89 296.7,153.6 308.1,159C319.6,164.4 329.1,171.6 336.9,180.7C344.6,189.77 350.4,200.2 354.2,212C358.05,223.8 359.98,236 359.98,248.8C359.98,261.6 358.05,273.8 354.2,285.6C350.35,297.4 344.57,307.8 336.9,316.9C329.2,325.97 319.6,333.2 308.1,338.5C296.6,343.81 283.3,346.48 268.1,346.48C252.9,346.48 239.5,343.82 228.1,338.5C216.6,333.18 207.1,326 199.3,316.9C191.6,307.83 185.8,297.4 182,285.6C178.15,273.8 176.22,261.6 176.22,248.8C176.22,236 178.22,223.8 182.22,211.8L182,212ZM205,277C207.51,286.17 211.46,294.4 216.8,301.7C222.18,309.03 229.1,314.9 237.5,319.4C245.93,323.85 256,326.07 267.6,326.07C279.3,326.07 289.3,323.85 297.7,319.4C306.13,314.95 313,309.1 318.4,301.7C323.78,294.37 327.72,286.1 330.2,277C332.71,267.83 333.97,258.5 333.97,249.1C333.97,239.7 332.71,230.4 330.2,221.2C327.69,212.03 323.74,203.8 318.4,196.4C313.02,189.07 306.1,183.2 297.7,178.7C289.27,174.25 279.2,172.02 267.6,172.02C255.9,172.02 245.9,174.25 237.5,178.7C229.07,183.15 222.2,189 216.8,196.4C211.42,203.73 207.47,212 205,221.2C202.49,230.37 201.24,239.6 201.24,249.1C201.24,258.6 203.24,268.1 205.24,277.1L205,277Z" style="fill-rule:nonzero;"/>
            <path d="M398,223L398,239.1L398.4,239.1C401.7,232.49 406.88,227.7 414,224.7C421.07,221.7 428.8,220.2 437.3,220.2C446.72,220.2 454.9,221.89 461.9,225.27C468.89,228.65 474.7,233.21 479.3,238.97C483.93,244.73 487.42,251.37 489.8,258.87C492.15,266.39 493.34,274.37 493.34,282.87C493.34,291.31 492.2,299.27 489.92,306.87C487.64,314.39 484.19,320.97 479.52,326.57C474.89,332.17 469.12,336.57 462.12,339.77C455.13,342.99 447.02,344.6 437.72,344.6C434.73,344.6 431.39,344.29 427.72,343.68C424.03,343.06 420.38,342.07 416.72,340.68C413.11,339.3 409.69,337.41 406.52,335.03C403.3,332.65 400.59,329.7 398.4,326.15L398,326.15L398,387.65L377.8,387.65L377.8,222.65L394.8,222.65L398,223ZM470,266C468.51,260.71 466.24,256 463.19,251.8C460.13,247.66 456.21,244.36 451.39,241.9C446.6,239.44 440.99,238.22 434.59,238.22C427.85,238.22 422.09,239.53 417.39,242.14C412.69,244.75 408.85,248.16 405.89,252.34C402.91,256.56 400.76,261.36 399.43,266.74C398.1,272.11 397.44,277.54 397.44,283.04C397.44,288.87 398.14,294.54 399.55,299.94C400.96,305.39 403.19,310.14 406.25,314.34C409.3,318.48 413.26,321.82 418.15,324.34C423.01,326.87 428.85,328.14 435.75,328.14C442.64,328.14 448.35,326.84 453.05,324.23C457.67,321.62 461.4,318.17 464.25,313.83C467.07,309.54 469.1,304.63 470.36,299.13C471.61,293.6 472.24,287.93 472.24,282.13C471.24,278.13 470.24,272.13 469.24,267.13L470,266Z" style="fill-rule:nonzero;"/>
            <path d="M596,335C586.87,341.75 575.4,345.1 561.5,345.1C551.74,345.1 543.3,343.57 536.1,340.5C528.94,337.43 522.9,333.13 518,327.6C513.12,322.07 509.46,315.5 507,307.8C504.56,300.13 503.19,291.8 502.87,282.7C502.87,273.65 504.28,265.4 507.12,257.8C509.95,250.28 513.93,243.8 519.02,238.2C524.14,232.67 530.22,228.38 537.22,225.3C544.23,222.23 551.92,220.69 560.22,220.69C571.12,220.69 580.12,222.89 587.22,227.26C594.39,231.65 600.12,237.22 604.42,243.96C608.75,250.73 611.75,258.16 613.4,266.16C615.05,274.16 615.72,281.76 615.41,288.96L524.11,288.96C523.95,294.17 524.58,299.16 525.99,303.76C527.4,308.43 529.68,312.57 532.82,316.16C535.96,319.76 539.97,322.63 544.82,324.78C549.69,326.93 555.42,328 562.02,328C570.5,328 577.42,326.08 582.82,322.24C588.24,318.4 591.81,312.56 593.52,304.74L613.32,304.74C609.32,318.74 603.32,328.74 594.32,335.74L596,335ZM591,259C589.2,254.87 586.77,251.3 583.71,248.3C580.65,245.32 577.04,242.94 572.91,241.18C568.75,239.42 564.16,238.53 559.11,238.53C553.93,238.53 549.26,239.41 545.11,241.18C540.95,242.94 537.38,245.36 534.41,248.41C531.43,251.48 529.08,255.04 527.35,259.11C525.62,263.17 524.6,267.5 524.29,272.11L594.19,272.11C594.19,267.11 593.19,263.11 591.19,259.11L591,259Z" style="fill-rule:nonzero;"/>
            <path d="M648,223L648,241.9L648.38,241.9C656.75,227.5 669.98,220.2 688.18,220.2C696.23,220.2 702.98,221.28 708.38,223.43C713.75,225.58 718.09,228.58 721.38,232.42C724.7,236.26 727.03,240.83 728.37,246.12C729.71,251.42 730.38,257.32 730.38,263.72L730.38,342.12L710.18,342.12L710.18,261.52C710.18,254.15 707.97,248.32 703.56,244.02C699.14,239.72 693.06,237.57 685.36,237.57C679.21,237.57 673.86,238.5 669.36,240.34C664.87,242.18 661.12,244.79 658.16,248.17C655.17,251.55 652.92,255.5 651.43,260.07C649.93,264.6 649.18,269.56 649.18,274.97L649.18,342.27L628.98,342.27L628.98,222.27L647.98,222.27L648,223Z" style="fill-rule:nonzero;"/>
            <path d="M870,341C860.88,344.76 851.7,346.64 842.4,346.64C827.7,346.64 814.5,344.14 802.8,339.16C791.1,334.17 781.2,327.26 773.2,318.56C765.15,309.81 759,299.56 754.7,287.66C750.41,275.86 748.26,263.06 748.26,249.46C748.26,235.46 750.4,222.46 754.68,210.46C758.96,198.46 765.08,188.06 773.18,179.06C781.21,170.13 791.08,163.16 802.78,158.06C814.48,152.98 827.68,150.44 842.38,150.44C852.21,150.44 861.78,151.89 870.98,154.78C880.19,157.68 888.48,161.93 895.98,167.58C903.4,173.19 909.48,180.08 914.38,188.38C919.21,196.61 922.17,206.08 923.24,216.68L883.04,216.68C880.53,206.18 875.7,198.38 868.54,193.08C861.38,187.84 852.74,185.22 842.54,185.22C833.06,185.22 825.04,187.01 818.44,190.6C811.82,194.19 806.44,199.01 802.34,205C798.22,211.04 795.23,217.9 793.36,225.6C791.48,233.3 790.54,241.3 790.54,249.5C790.54,257.38 791.48,265 793.36,272.5C795.24,279.94 798.24,286.6 802.36,292.6C806.48,298.55 811.85,303.3 818.46,306.9C825.08,310.49 833.16,312.28 842.66,312.28C856.66,312.28 867.36,308.84 875.06,301.98C882.67,295.1 887.06,285.08 888.36,272.08L845.96,272.08L845.96,241.28L926.36,241.28L926.36,342.28L899.66,342.28L895.38,321.08C889.38,332.08 881.38,339.08 871.38,342.08L870,341Z" style="fill-rule:nonzero;"/>
            <path d="M995,156L995,308L1088.4,308L1088.4,342.7L951.4,342.7L951.4,155.7L993.4,155.7L995,156Z" style="fill-rule:nonzero;"/>
            <path d="M796,366C731.7,404.2 635,426 528,426C334,426 178,347.2 178,250C178,152.8 334,74 528,74C636,74 732,96.2 797,134.6C727,69.9 601,24.6 457,24.6C237,24.6 58,125.6 58,249.6C58,373.6 237,474.6 457,474.6C600,474.6 726,429.6 796,365.6L796,366Z" style="fill-rule:nonzero;"/>
        </g>
        <path d="M1140,325C1140,328.14 1139.21,331.07 1137.64,333.78C1136.07,336.49 1133.93,338.63 1131.22,340.19C1128.51,341.75 1125.58,342.53 1122.44,342.53C1119.31,342.53 1116.4,341.75 1113.68,340.19C1110.97,338.63 1108.83,336.49 1107.26,333.78C1105.69,331.07 1104.9,328.14 1104.9,325C1104.9,321.87 1105.68,318.95 1107.26,316.23C1108.83,313.51 1110.97,311.37 1113.68,309.81C1116.39,308.25 1119.31,307.47 1122.44,307.47C1125.58,307.47 1128.51,308.25 1131.22,309.81C1133.93,311.37 1136.07,313.51 1137.64,316.23L1137.64,325.23L1140,325ZM1140,325C1140,321.09 1138.62,317.76 1135.85,315C1133.08,312.23 1129.75,310.85 1125.85,310.85C1121.94,310.85 1118.61,312.23 1115.85,315C1113.09,317.77 1111.7,321.1 1111.7,325C1111.7,328.9 1113.08,332.24 1115.85,335C1118.62,337.76 1121.95,339.15 1125.85,339.15C1129.76,339.15 1133.09,337.77 1135.85,335L1135.85,325L1140,325ZM1120,316L1128.39,316C1130.76,316 1132.48,316.48 1133.55,317.44C1134.61,318.4 1135.15,319.68 1135.15,321.29C1135.15,322.55 1134.74,323.63 1133.93,324.55C1133.12,325.47 1131.84,326.14 1130.09,326.55C1130.81,326.83 1131.34,327.12 1131.68,327.42C1132.15,327.85 1132.65,328.49 1133.17,329.33C1133.2,329.39 1134.21,331.2 1136.2,334.75L1130.68,334.75C1128.89,331.18 1127.68,329.05 1127.07,328.35C1126.46,327.65 1125.84,327.3 1125.23,327.3C1125.09,327.3 1124.9,327.32 1124.66,327.37L1124.66,334.75L1119.99,334.75L1119.99,316.75L1120,316ZM1120,324L1122.02,324C1123.37,324 1124.32,323.78 1124.87,323.35C1125.42,322.91 1125.7,322.35 1125.7,321.66C1125.7,320.97 1125.44,320.41 1124.91,319.97C1124.38,319.53 1123.48,319.32 1122.21,319.32L1122.21,325.32L1120,324Z" style="fill-rule:nonzero;"/>
    </g>
</svg>
