<?xml version="1.0" encoding="UTF-8" standalone="no"?>
<!DOCTYPE svg PUBLIC "-//W3C//DTD SVG 1.1//EN" "http://www.w3.org/Graphics/SVG/1.1/DTD/svg11.dtd">
<svg width="100%" height="100%" viewBox="0 0 1500 500" version="1.1" xmlns="http://www.w3.org/2000/svg" xmlns:xlink="http://www.w3.org/1999/xlink" xml:space="preserve" xmlns:serif="http://www.serif.com/" style="fill-rule:evenodd;clip-rule:evenodd;stroke-linejoin:round;stroke-miterlimit:2;">
    <g id="Vulkan" transform="matrix(0.95005,0,0,0.95005,124.697,-25.31)">
        <g>
            <path d="M724.1,385.06L683.53,385.06L683.53,255.4C696.49,262.62 713.62,275.94 724.1,288.72L724.1,385.06Z" style="fill-rule:nonzero;"/>
            <g>
                <path d="M381.75,385.06L331.17,385.06L265.16,181.03L311.17,181.03L356.61,324.48L357.18,324.48L403.18,181.03L449.47,181.03L381.75,385.06Z" style="fill-rule:nonzero;"/>
                <path d="M585.52,385.06L546.93,385.06L546.93,364.49L546.08,364.49C540.93,373.07 534.27,379.26 526.07,383.07C517.88,386.88 509.5,388.78 500.92,388.78C490.06,388.78 481.16,387.35 474.2,384.5C467.25,381.65 461.77,377.59 457.77,372.36C453.76,367.12 450.95,360.74 449.33,353.21C447.72,345.69 446.91,337.35 446.91,328.21L446.91,237.33L487.49,237.33L487.49,320.77C487.49,332.96 489.4,342.06 493.21,348.06C497.02,354.07 503.78,357.06 513.5,357.06C524.55,357.06 532.55,353.78 537.5,347.2C542.46,340.62 544.93,329.81 544.93,314.76L544.93,237.32L585.52,237.32L585.52,385.06Z" style="fill-rule:nonzero;"/>
            </g>
            <path d="M730.84,296.19L730.74,290.47L781.89,237.33L829.91,237.33L774.18,291.62L836.19,385.06L787.04,385.06L730.84,296.19Z" style="fill-rule:nonzero;"/>
            <path d="M843.62,282.76C844.19,273.24 846.58,265.33 850.77,259.04C854.96,252.75 860.29,247.71 866.77,243.9C873.25,240.09 880.54,237.37 888.64,235.76C896.73,234.14 904.88,233.33 913.07,233.33C920.5,233.33 928.02,233.85 935.64,234.9C943.27,235.95 950.21,238 956.5,241.05C962.78,244.1 967.93,248.34 971.94,253.76C975.94,259.19 977.94,266.38 977.94,275.34L977.94,352.21C977.94,358.88 978.32,365.27 979.08,371.36C979.84,377.46 981.18,382.03 983.09,385.08L941.94,385.08C941.18,382.8 940.56,380.46 940.08,378.08C939.61,375.7 939.27,373.28 939.08,370.79C932.6,377.47 924.97,382.13 916.21,384.8C907.45,387.46 898.49,388.8 889.35,388.8C882.3,388.8 875.72,387.94 869.64,386.23C863.54,384.52 858.2,381.85 853.64,378.23C849.06,374.61 845.48,370.04 842.92,364.51C840.35,358.99 839.06,352.42 839.06,344.8C839.06,336.42 840.54,329.51 843.49,324.08C846.45,318.65 850.25,314.32 854.93,311.08C859.6,307.84 864.93,305.41 870.93,303.79C876.93,302.17 882.98,300.88 889.07,299.93C895.17,298.99 901.17,298.22 907.08,297.65C912.99,297.08 918.22,296.22 922.79,295.08C927.37,293.93 930.98,292.27 933.65,290.07C936.32,287.88 937.56,284.69 937.37,280.5C937.37,276.12 936.65,272.64 935.22,270.07C933.79,267.5 931.89,265.5 929.51,264.07C927.13,262.64 924.37,261.69 921.22,261.21C918.07,260.73 914.7,260.49 911.08,260.49C903.08,260.49 896.79,262.2 892.22,265.64C887.65,269.07 884.98,274.78 884.22,282.79L843.62,282.79L843.62,282.76ZM937.35,312.77C935.63,314.3 933.49,315.48 930.92,316.34C928.35,317.21 925.59,317.92 922.63,318.49C919.68,319.06 916.58,319.54 913.35,319.92C910.11,320.3 906.87,320.77 903.63,321.35C900.58,321.92 897.58,322.69 894.63,323.63C891.68,324.59 889.1,325.87 886.91,327.49C884.72,329.11 882.96,331.16 881.62,333.63C880.29,336.11 879.62,339.25 879.62,343.06C879.62,346.68 880.29,349.73 881.62,352.2C882.96,354.68 884.77,356.63 887.05,358.06C889.34,359.49 892,360.49 895.05,361.06C898.1,361.63 901.24,361.91 904.48,361.91C912.48,361.91 918.68,360.58 923.06,357.92C927.44,355.25 930.69,352.06 932.77,348.34C934.86,344.63 936.16,340.87 936.62,337.06C937.1,333.25 937.33,330.2 937.34,327.92L937.34,312.77L937.35,312.77Z" style="fill-rule:nonzero;"/>
            <path d="M1004.21,237.33L1042.8,237.33L1042.8,257.9L1043.65,257.9C1048.79,249.33 1055.46,243.09 1063.65,239.19C1071.84,235.28 1080.23,233.33 1088.79,233.33C1099.66,233.33 1108.56,234.81 1115.52,237.76C1122.47,240.72 1127.94,244.81 1131.95,250.05C1135.95,255.29 1138.76,261.67 1140.38,269.19C1142,276.72 1142.81,285.05 1142.81,294.2L1142.81,385.07L1102.24,385.07L1102.24,301.63C1102.24,289.43 1100.33,280.34 1096.53,274.34C1092.71,268.34 1085.95,265.34 1076.23,265.34C1065.18,265.34 1057.19,268.63 1052.23,275.2C1047.27,281.76 1044.8,292.58 1044.8,307.63L1044.8,385.07L1004.22,385.07L1004.22,237.33L1004.21,237.33Z" style="fill-rule:nonzero;"/>
            <g>
                <path d="M612.37,211.84L612.37,385.07L652.95,385.07L652.95,234.21C639.93,226.23 626.36,218.74 612.37,211.84Z" style="fill-rule:nonzero;"/>
            </g>
            <path d="M198.43,219.21C221.95,150.32 362.58,125.05 512.58,162.78C602.55,185.4 676.07,229.28 724.09,272.67C702.3,215.12 596.65,133.08 451.18,104.96C286.7,73.16 124.47,101.11 104.39,174.1C89.89,226.83 153.57,288.6 252.05,330.84C207.81,295.02 186.29,254.78 198.43,219.21Z" style="fill-rule:nonzero;"/>
            <g>
                <path d="M724.16,247.62L724.16,181.03L683.57,181.03L683.57,201.25C700.88,216.71 714.61,232.45 724.16,247.62Z" style="fill-rule:nonzero;"/>
            </g>
        </g>
        <g>
            <path d="M1214.52,363.68C1214.52,375.94 1204.89,385.57 1192.37,385.57C1179.97,385.57 1170.08,375.94 1170.08,363.68C1170.08,351.68 1179.97,342.05 1192.37,342.05C1204.9,342.06 1214.52,351.68 1214.52,363.68ZM1175.62,363.68C1175.62,373.31 1182.74,380.95 1192.5,380.95C1201.99,380.95 1208.98,373.3 1208.98,363.81C1208.98,354.18 1201.99,346.4 1192.36,346.4C1182.74,346.41 1175.62,354.19 1175.62,363.68ZM1188.96,375.02L1183.93,375.02L1183.93,353.4C1185.91,353 1188.68,352.74 1192.24,352.74C1196.33,352.74 1198.17,353.4 1199.76,354.32C1200.95,355.24 1201.87,356.96 1201.87,359.07C1201.87,361.44 1200.02,363.29 1197.39,364.08L1197.39,364.34C1199.5,365.13 1200.69,366.71 1201.35,369.61C1202.01,372.91 1202.4,374.23 1202.93,375.02L1197.52,375.02C1196.86,374.23 1196.47,372.25 1195.81,369.75C1195.41,367.38 1194.1,366.32 1191.33,366.32L1188.96,366.32L1188.96,375.02ZM1189.06,362.76L1191.44,362.76C1194.21,362.76 1196.45,361.84 1196.45,359.59C1196.45,357.61 1195,356.29 1191.83,356.29C1190.51,356.29 1189.59,356.42 1189.06,356.55L1189.06,362.76Z" style="fill-rule:nonzero;"/>
        </g>
    </g>
</svg>
