<svg fill="#0078d4" width="52" height="52" viewBox="0 0 64 64" xmlns="http://www.w3.org/2000/svg"><path d="M62.9 30.4996C62.9 20.7996 62.9 10.7996 62.9 1.09961C51.6 2.59961 40.4 4.19961 29 5.99961C29 14.2996 29 22.5996 29 30.6996C40.4 30.5996 51.6 30.5996 62.9 30.4996Z"/><path d="M1 10.1992V30.9992C9.3 30.9992 17.9 30.8992 26.2 30.8992C26.2 22.6992 26.2 14.8992 26.2 6.69922C17.9 7.79922 9.3 8.89922 1 10.1992Z"/><path d="M1 33.3994V54.1994C9.3 55.2994 17.9 56.3994 26.2 57.5994C26.2 49.5994 26.2 41.5994 26.2 33.5994C17.9 33.3994 9.3 33.3994 1 33.3994Z"/><path d="M29.3008 33.7998C29.4008 41.9998 29.4008 49.9998 29.4008 58.0998C40.6008 59.5998 51.8008 61.1998 63.0008 62.8998C63.0008 53.1998 63.0008 43.4998 63.0008 33.7998C51.6008 33.7998 40.4008 33.7998 29.3008 33.7998Z"/></svg>