<?xml version="1.0" encoding="UTF-8" standalone="no"?>
<!DOCTYPE svg PUBLIC "-//W3C//DTD SVG 1.1//EN" "http://www.w3.org/Graphics/SVG/1.1/DTD/svg11.dtd">
<svg width="100%" height="100%" viewBox="0 0 1024 1024" version="1.1" xmlns="http://www.w3.org/2000/svg" xmlns:xlink="http://www.w3.org/1999/xlink" xml:space="preserve" xmlns:serif="http://www.serif.com/" style="fill-rule:evenodd;clip-rule:evenodd;stroke-linecap:round;stroke-linejoin:round;stroke-miterlimit:1.5;">
    <g id="Layer1">
        <g transform="matrix(1.16827,0,0,1.14816,215.424,-45.04)">
            <path d="M510.14,414.477L434.534,361.734L329.771,404.949L407.749,461.927L510.14,414.477Z" style="fill:rgb(233,233,233);stroke:black;stroke-width:1.73px;"/>
        </g>
        <g transform="matrix(1.16827,0,0,1.14816,293.685,776.97)">
            <path d="M262.784,-310.871L151.201,-261.722L159.011,-151.429L264.813,-202.849L262.784,-310.871Z" style="fill:rgb(201,202,202);stroke:black;stroke-width:1.73px;"/>
        </g>
        <g transform="matrix(1.16827,0,0,1.14816,-16.6825,542.942)">
            <path d="M265.936,-283.062L152.134,-240.844L163.938,-130.595L276.45,-171.301L265.936,-283.062Z" style="fill:rgb(201,202,202);stroke:black;stroke-width:1.73px;"/>
        </g>
        <g transform="matrix(1.16827,0,0,1.14816,207.025,565.831)">
            <path d="M256.674,-290.705L143.464,-254.442L152.478,-137.698L260.772,-180.258L256.674,-290.705Z" style="fill:rgb(201,202,202);stroke:black;stroke-width:1.73px;"/>
        </g>
        <g transform="matrix(1.16827,0,0,1.14816,401.37,560.618)">
            <path d="M275.489,-278.656L166.461,-238.349L171.023,-122.345L275.371,-165.768L275.489,-278.656Z" style="fill:rgb(201,202,202);stroke:black;stroke-width:1.73px;"/>
        </g>
        <g transform="matrix(1.16827,0,0,1.14816,45.5695,752.586)">
            <path d="M289.863,-300.762L173.109,-256.592L184.148,-145.671L294.807,-190.405L289.863,-300.762Z" style="fill:rgb(201,202,202);stroke:black;stroke-width:1.73px;"/>
        </g>
        <g transform="matrix(1.16827,0,0,1.14816,136.227,960.793)">
            <path d="M293.79,-311.53L178.332,-263.532L187.317,-156.917L298.531,-209.783L293.79,-311.53Z" style="fill:rgb(201,202,202);stroke:black;stroke-width:1.73px;"/>
        </g>
        <g transform="matrix(1.16467,0,0,1.14816,-296.921,-58.9195)">
            <path d="M586.081,406.343L517.92,352.895L404.706,392.634L466.978,450.921L586.081,406.343Z" style="fill:rgb(233,233,233);stroke:black;stroke-width:1.73px;"/>
        </g>
        <g transform="matrix(1.16467,0,0,1.14816,-87.019,-51.6206)">
            <path d="M590.589,410.739L515.448,358.214L405.389,399.275L480.516,458.963L590.589,410.739Z" style="fill:rgb(233,233,233);stroke:black;stroke-width:1.73px;"/>
        </g>
        <g transform="matrix(1.16467,0,0,1.14816,-203.139,136.558)">
            <path d="M586.081,406.343L513.246,343.868L398.261,390.863L470.267,454.341L586.081,406.343Z" style="fill:rgb(233,233,233);stroke:black;stroke-width:1.73px;"/>
        </g>
        <g transform="matrix(1.16467,0,0,1.14816,12.4997,150.138)">
            <path d="M587.202,405.199L507.061,343.095L400.141,394.909L476.946,456.829L587.202,405.199Z" style="fill:rgb(233,233,233);stroke:black;stroke-width:1.73px;"/>
        </g>
        <g transform="matrix(1.16467,0,0,1.14816,-113.08,322.293)">
            <path d="M589.026,413.725L513.512,346.323L401.955,399.189L474.729,470.698L589.026,413.725Z" style="fill:rgb(233,233,233);stroke:black;stroke-width:1.73px;"/>
        </g>
        <g transform="matrix(1.16827,0,0,1.14816,-102.629,67.6035)">
            <path d="M683.738,365.692L602.014,306.841L604.046,414.979L683.94,477.083L683.738,365.692Z" style="fill:rgb(141,141,141);stroke:black;stroke-width:1.68px;"/>
        </g>
        <g transform="matrix(1.16827,0,0,1.14816,14.8628,-110.963)">
            <path d="M690.948,357.803L606.327,306.262L606.209,419.15L688.799,473.181L690.948,357.803Z" style="fill:rgb(141,141,141);stroke:black;stroke-width:1.68px;"/>
        </g>
        <g transform="matrix(1.16827,0,0,1.14816,-193.828,-124.613)">
            <path d="M675.932,358.458L599.721,308.741L603.889,421.089L680.078,474.253C680.078,474.253 675.932,358.458 675.932,358.458Z" style="fill:rgb(141,141,141);stroke:black;stroke-width:1.68px;"/>
        </g>
        <g transform="matrix(1.16827,0,0,1.14816,-407.515,-132.54)">
            <path d="M669.49,353.809L600.476,305.254L610.99,417.015L678.475,469.752L669.49,353.809Z" style="fill:rgb(141,141,141);stroke:black;stroke-width:1.68px;"/>
        </g>
        <g transform="matrix(1.16827,0,0,1.14816,-319.641,58.0425)">
            <path d="M678.154,363.451L603.258,303.763L607.481,416.247L683.999,474.726L678.154,363.451Z" style="fill:rgb(141,141,141);stroke:black;stroke-width:1.68px;"/>
        </g>
        <g transform="matrix(1.16827,0,0,1.14816,-228.492,243.545)">
            <path d="M682.038,375.343L605.978,313.162L610.719,414.909L686.001,482.311L682.038,375.343Z" style="fill:rgb(141,141,141);stroke:black;stroke-width:1.68px;"/>
        </g>
        <g transform="matrix(1.05957,0,0,1.17772,1.08417,-53.6935)">
            <path d="M324.173,604.482L245.025,542.597L233.058,435.853L161.665,378.219L152.223,272.356L78.252,220.46L136.218,618.825L423.608,876.164L414.074,778.135L334.08,708.421L324.173,604.482Z" style="fill:rgb(141,141,141);stroke:black;stroke-width:8.13px;"/>
        </g>
        <g transform="matrix(1.16827,0,0,1.14816,-14.1341,-44.1817)">
            <path d="M818.802,257.908L715.769,299.64L713.619,415.018L607.989,463.052L608.191,574.443L498.274,626.073L502.517,732.909L388.572,789.881L397.219,890.434L799.468,678.748L818.802,257.908Z" style="fill:rgb(206,206,207);stroke:black;stroke-width:7.86px;"/>
        </g>
        <g transform="matrix(1.16827,6.37358e-17,-6.48519e-17,1.14816,-14.1341,69.4805)">
            <path d="M818.802,158.913L507.45,-16.155L83.998,118.856L149.953,171.521L263.755,129.303L332.769,177.858L445.909,139.694L522.119,189.411L631.148,149.104L715.769,200.645L818.802,158.913Z" style="fill:rgb(250,250,250);stroke:black;stroke-width:6.91px;"/>
        </g>
    </g>
</svg>
