<?xml version="1.0" encoding="UTF-8"?>
<svg id="Layer_1" data-name="Layer 1" xmlns="http://www.w3.org/2000/svg" xmlns:xlink="http://www.w3.org/1999/xlink" viewBox="0 0 920.87 754.39">
  <defs>
    <style>
      .cls-1 {
        fill: #333;
      }

      .cls-1, .cls-2, .cls-3, .cls-4, .cls-5, .cls-6 {
        stroke: #000;
        stroke-miterlimit: 10;
        stroke-width: 7px;
      }

      .cls-7 {
        fill: #fff;
        stroke-width: 0px;
      }

      .cls-2 {
        fill: #f2f2f2;
      }

      .cls-3 {
        fill: #4d4d4d;
      }

      .cls-5 {
        fill: url(#linear-gradient);
      }

      .cls-6 {
        fill: #ccc;
      }
    </style>
    <linearGradient id="linear-gradient" x1="283.12" y1="898.05" x2="592.62" y2="40.51" gradientUnits="userSpaceOnUse">
      <stop offset=".05" stop-color="gray"/>
      <stop offset=".06" stop-color="#8a8a8a"/>
      <stop offset=".09" stop-color="#ababab"/>
      <stop offset=".13" stop-color="#c5c5c5"/>
      <stop offset=".17" stop-color="#d7d7d7"/>
      <stop offset=".21" stop-color="#e2e2e2"/>
      <stop offset=".25" stop-color="#e6e6e6"/>
      <stop offset=".59" stop-color="#ccc"/>
      <stop offset=".65" stop-color="#c9caca"/>
      <stop offset=".95" stop-color="#c4c6c8"/>
    </linearGradient>
  </defs>
  <path class="cls-2" d="m656.37,382.89c163-27,197,55,210-43,6.28-47.33,92-130,15-146"/>
  <path class="cls-5" d="m251.37,174.89c1.47,65.76-142.7,239.74-190,321-39,67-72.85,144.02-51,189,17,35,58,66,119,66,194.56,0,205.54-252.58,440-336,88.59-31.52,139.26-17.25,222-76,65.04-46.19,141.09-131.25,123-173-18.81-43.42-663,9-663,9Z"/>
  <ellipse class="cls-6" cx="584.37" cy="175.39" rx="333" ry="83.5"/>
  <path class="cls-2" d="m378.06,494.08c33.15,8.15,54.13,15.4,68.23,18.98,10.79,2.74,22.23.73,31.42-5.55l69.66-47.61c9.16-4.9,41-9,40-27-1.56-28.15-62.53-37.79-126-52-134-30-198,85-83.31,113.19Z"/>
  <ellipse class="cls-2" cx="584.64" cy="168.39" rx="293.12" ry="73.5"/>
  <g>
    <path class="cls-1" d="m516.37,141.39c0,14.08-30,25.5-67,25.5s-67-11.42-67-25.5,30-39.5,67-39.5,67,25.42,67,39.5Z"/>
    <path class="cls-4" d="m485.84,114.53c0,7.67-16.34,13.89-36.5,13.89s-36.5-6.22-36.5-13.89-10.19-82.64,35.66-82.64,37.35,74.96,37.35,82.64Z"/>
    <path class="cls-4" d="m523.37,35.39c0,16.19-34.47,56.31-77,56.31s-77-40.12-77-56.31,34.47-2.31,77-2.31,77-13.88,77,2.31Z"/>
    <ellipse class="cls-3" cx="446.46" cy="32.81" rx="77" ry="29.31"/>
  </g>
  <g>
    <g>
      <path class="cls-4" d="m619.46,205.94c0,12.18-25.94,22.05-57.95,22.05s-57.95-9.87-57.95-22.05c0-10.65.81-20.05.81-20.05,3.78-.3,110.99,2,115,2,0,0,.08,5.87.08,18.05Z"/>
      <path class="cls-3" d="m619.83,186.11c0,12.18-25.94,22.05-57.95,22.05s-57.95-9.87-57.95-22.05,26.42-28.22,58.43-28.22,57.46,16.04,57.46,28.22Z"/>
    </g>
    <ellipse class="cls-7" cx="545.64" cy="177.51" rx="18.06" ry="10.85" transform="translate(-27.23 145.01) rotate(-14.77)"/>
  </g>
  <g>
    <g>
      <path class="cls-4" d="m784.68,188.67c0,12.18-25.94,22.05-57.95,22.05s-57.95-9.87-57.95-22.05c0-10.65.81-20.05.81-20.05,3.78-.3,110.99,2,115,2,0,0,.08,5.87.08,18.05Z"/>
      <path class="cls-3" d="m785.06,168.84c0,12.18-25.94,22.05-57.95,22.05s-57.95-9.87-57.95-22.05,26.42-28.22,58.43-28.22,57.46,16.04,57.46,28.22Z"/>
    </g>
    <ellipse class="cls-7" cx="710.87" cy="160.24" rx="18.06" ry="10.85" transform="translate(-17.36 186.57) rotate(-14.77)"/>
  </g>
</svg>