<?xml version="1.0" encoding="UTF-8" standalone="no"?>
<!DOCTYPE svg PUBLIC "-//W3C//DTD SVG 1.1//EN" "http://www.w3.org/Graphics/SVG/1.1/DTD/svg11.dtd">
<svg width="100%" height="100%" viewBox="0 0 1024 1024" version="1.1" xmlns="http://www.w3.org/2000/svg" xmlns:xlink="http://www.w3.org/1999/xlink" xml:space="preserve" xmlns:serif="http://www.serif.com/" style="fill-rule:evenodd;clip-rule:evenodd;stroke-linecap:round;stroke-linejoin:round;stroke-miterlimit:1.5;">
    <g id="Layer1">
        <path d="M765.073,158.563C806.165,149.484 847.155,128.635 880.32,84.025C894.895,64.42 891.991,323.928 879.174,301.905C860.243,269.378 809.796,222.493 767.94,217.62C748.364,215.34 745.829,162.814 765.073,158.563Z" style="fill:url(#_Linear1);stroke:black;stroke-width:12px;"/>
        <g transform="matrix(0.448192,0,0,1,550.208,-4.58695)">
            <path d="M756.427,195.258C756.427,131.901 678.181,42.169 783.094,42.169C888.008,42.169 891.967,122.416 890.517,198.681C889.129,271.709 874.924,340.894 780.668,340.894C705.667,340.894 756.427,258.615 756.427,195.258Z" style="fill:url(#_Linear2);stroke:black;stroke-width:15.49px;"/>
        </g>
        <path d="M89.806,143.569C120.641,144.238 117.057,163.948 143.934,163.948C170.81,163.948 155.565,146.926 182.457,146.926C223.425,146.926 223.425,226.66 182.457,226.66C151.997,226.66 176.186,210.534 143.934,210.534C111.682,210.534 118.017,232.035 92.868,232.035C67.719,232.035 58.972,142.9 89.806,143.569Z" style="fill:url(#_Linear3);stroke:black;stroke-width:12px;"/>
        <path d="M70.967,255.328C26.136,255.328 22.873,113.778 71.367,113.778C108.586,113.778 108.186,255.328 70.967,255.328Z" style="fill:url(#_Linear4);stroke:black;stroke-width:12px;"/>
        <path d="M232.627,219.493C200.329,219.493 200.329,155.885 232.627,155.885C252.356,155.885 744.659,155.743 754.033,155.885C779.924,156.274 777.386,222.151 754.929,222.18C740.764,222.199 247.883,219.493 232.627,219.493Z" style="fill:url(#_Linear5);stroke:black;stroke-width:12px;"/>
        <path d="M267.424,140.612C267.424,121.224 321.667,122.974 321.667,142.362C321.667,205.378 322.243,215.392 320.494,257.387C318.744,299.382 349.874,362.834 418.787,362.834C459.032,362.834 496.737,360.001 496.737,360.001L491.396,831.775L269.174,994.505C269.174,994.505 267.424,191.386 267.424,140.612Z" style="fill:rgb(13,121,242);stroke:black;stroke-width:12px;"/>
        <g transform="matrix(-0.991571,0,0,1,989.287,0)">
            <path d="M267.424,140.612C267.424,121.224 321.667,122.974 321.667,142.362C321.667,205.378 322.243,215.392 320.494,257.387C318.744,299.382 349.874,362.834 418.787,362.834C459.032,362.834 496.737,360.001 496.737,360.001L491.396,831.775L269.174,994.505C269.174,994.505 267.424,191.386 267.424,140.612Z" style="fill:rgb(230,26,26);stroke:black;stroke-width:12.05px;"/>
        </g>
    </g>
    <defs>
        <linearGradient id="_Linear1" x1="0" y1="0" x2="1" y2="0" gradientUnits="userSpaceOnUse" gradientTransform="matrix(-14.8928,56.7634,-90.4731,-23.7371,833.87,158.124)"><stop offset="0" style="stop-color:rgb(255,232,25);stop-opacity:1"/><stop offset="0.49" style="stop-color:rgb(235,197,18);stop-opacity:1"/><stop offset="1" style="stop-color:rgb(179,97,0);stop-opacity:1"/></linearGradient>
        <linearGradient id="_Linear2" x1="0" y1="0" x2="1" y2="0" gradientUnits="userSpaceOnUse" gradientTransform="matrix(-28.1445,67.6574,-150.956,-12.6141,820.977,211.313)"><stop offset="0" style="stop-color:rgb(255,232,25);stop-opacity:1"/><stop offset="0.49" style="stop-color:rgb(235,197,18);stop-opacity:1"/><stop offset="1" style="stop-color:rgb(179,97,0);stop-opacity:1"/></linearGradient>
        <linearGradient id="_Linear3" x1="0" y1="0" x2="1" y2="0" gradientUnits="userSpaceOnUse" gradientTransform="matrix(2.69635e-15,44.0347,-27.2297,1.66734e-15,144.385,166.957)"><stop offset="0" style="stop-color:rgb(255,232,25);stop-opacity:1"/><stop offset="0.49" style="stop-color:rgb(235,197,18);stop-opacity:1"/><stop offset="1" style="stop-color:rgb(179,97,0);stop-opacity:1"/></linearGradient>
        <linearGradient id="_Linear4" x1="0" y1="0" x2="1" y2="0" gradientUnits="userSpaceOnUse" gradientTransform="matrix(5.30282e-15,86.6015,-86.6015,5.30282e-15,65.921,138.255)"><stop offset="0" style="stop-color:rgb(255,232,25);stop-opacity:1"/><stop offset="0.49" style="stop-color:rgb(235,197,18);stop-opacity:1"/><stop offset="1" style="stop-color:rgb(179,97,0);stop-opacity:1"/></linearGradient>
        <linearGradient id="_Linear5" x1="0" y1="0" x2="1" y2="0" gradientUnits="userSpaceOnUse" gradientTransform="matrix(2.90744e-15,47.4821,-47.4821,2.90744e-15,511.248,155.885)"><stop offset="0" style="stop-color:rgb(255,232,25);stop-opacity:1"/><stop offset="0.49" style="stop-color:rgb(235,197,18);stop-opacity:1"/><stop offset="1" style="stop-color:rgb(179,97,0);stop-opacity:1"/></linearGradient>
    </defs>
</svg>
